<?xml version="1.0" standalone="yes"?>
<svg xmlns="http://www.w3.org/2000/svg" width="580" height="580">
<path style="fill:#d4e2f7; stroke:none;" d="M0 0L0 580L230 580C225.758 577.459 220.808 578 216 578L192 578L192 572C184.888 572 178.746 571.99 175 565C174.315 566.248 174.251 566.548 174 568L170 568C169.518 565.636 169.364 565.482 167 565L168 561C161.284 560.151 154.771 560 148 560C148.227 557.565 148.149 555.254 149 553C147.231 552.221 145.964 552.088 144 552L144 555C140.993 555.221 139.635 555.455 138 558C135.583 556.735 133.724 556.182 131 556C130.965 552.786 130.858 550.649 129 548C126.606 549.339 124.738 549.821 122 550L121 546L114 547C117.723 539.659 111.819 541.875 107.344 539.339C105.176 538.111 104.581 536.229 104 534C98.9851 533.619 97.0022 531.498 95 527C93.2032 527 93.4785 527.014 92 528C91.4005 521.393 86.3627 517.729 87 511C90.2844 513.156 93.1867 514.938 97 516C93.867 511.037 87.5637 508.95 83.0903 505.207C74.6207 498.119 66.9492 488.452 63.1258 478C57.1254 461.597 57 445.185 57 428L57 381L57 199L57 151C57 141.774 56.2523 132.183 57.1705 123C59.0592 104.111 68.0035 87.201 82.804 75.243C111.701 51.8958 153.198 58 188 58L369 58L425 58C438.162 58 452.077 57.4833 465 60.3642C492.252 66.4392 514.779 88.3801 520.485 116C523.741 131.757 522 148.994 522 165L522 192C522 196.031 522.795 201.143 521.258 204.957C520.084 207.869 517.505 209.368 515 211L516 214C496.441 217.631 475.467 216.668 456 213C456.767 206.404 455 198.834 455 192C455 173.66 460.466 146.887 444.91 133.478C435.888 125.702 425.17 126 414 126L375 126L205 126L164 126C154.998 126 145.742 125.485 138 130.942C120.239 143.463 123 163.891 123 183L123 310L123 416C123.001 431.06 127.968 447.493 144 452.529C151.997 455.04 161.88 452.247 170 451.285C176.889 450.47 184.07 451 191 451C212.159 451 233.902 452.456 255 450.91C262.581 450.354 269.745 446.655 277.015 446.058C289.954 444.994 302.959 447.532 316 446.961C325.955 446.525 336.108 445.742 346 444.646C349.998 444.203 352.854 442.505 357 443C355.466 444.023 355.598 443.805 355 445C359.691 448.644 370.032 447.988 376 448C392.705 448.032 409.372 448.312 426 447L426 441L432 441L432 430C434.609 429.341 436.64 428.313 439 427C437.388 425.686 435.915 424.813 434 424C435.479 423.014 435.203 423 437 423C434.11 421.787 431.126 422.002 428 422C430.106 421.356 431.795 421.094 434 421C432.231 420.221 430.964 420.088 429 420C432.652 419.075 436.283 419.726 440 419C440.262 413.907 443.446 410.488 445.572 406C449.214 398.309 451.715 390.306 454.964 382.514C456.228 379.481 458.14 377.263 459 374C454.261 377.042 452.447 382.878 450.657 388C447.661 396.568 444.491 408.746 436.907 414.485C429.167 420.341 422.438 411.531 419.515 405C412.486 389.297 414.864 373.463 415 357C399.45 357.669 384.715 363 369 363C369 366.661 368.813 370.381 369.465 374C370.049 377.249 371.798 380.658 371.587 383.996C371.389 387.135 369.153 389.884 365.985 390.382C362.802 390.882 358.882 389.09 356 387.907C346.415 383.973 338.346 377.083 332.015 369C329.065 365.234 326.721 359.047 321.946 357.394C310.951 353.586 299.086 352.063 288 348.333C284.217 347.059 278.159 343.036 274.133 343.932C270.794 344.675 269.979 349.176 269.465 352C268.257 358.628 270.212 369.203 262.956 372.968C256.707 376.211 249.064 369.121 245.174 364.961C233.742 352.735 227.71 334.525 227 318L234 322L236 318C233.977 316.697 232.936 315.545 231 317L229 313C231.762 310.982 229.443 309.134 227 308L228 304L224 304C224 299.943 224.427 298.427 222 296L224 296C220.228 294.417 216.038 295.189 212 294.91C206.764 294.55 200.875 293.407 196.039 291.316C191.368 289.295 188.13 284.644 184.83 280.961C177.027 272.252 170.866 263.061 164.988 253C161.752 247.46 158.818 242.051 156.617 236C155.664 233.382 154.482 229.743 157.322 227.789C160.701 225.463 165.973 229.281 169 230.742C176.251 234.241 183.865 238.399 192 236C185.785 228.75 174.17 225.903 166 221.123C162.867 219.29 157.86 216.284 158.327 211.999C158.825 207.431 164.69 203.273 168 200.669C178.575 192.35 191.422 186.801 204 182.308C219.718 176.693 236.269 172.235 253 171.09C262.121 170.465 272.017 172.462 281 170.725C289.785 169.027 298.35 162.518 307 159.671C326.835 153.142 354.555 151.633 374 160.312C376.369 161.37 378.829 162.514 380.985 163.966C382.269 164.831 383.652 165.826 384.562 167.105C391.956 177.496 372.618 183.529 366.005 186.8C362.919 188.327 358.888 191.696 361.047 195.532C363.087 199.157 368.666 201.678 372 203.976C379.617 209.227 387.297 214.633 394 221.039C421.792 247.604 445.18 283.276 446 323L452 323C444.039 317.107 448.572 310.348 449 302C454.158 302.15 458.777 303.982 464 304C464.795 314.208 473.887 307.448 480 307L480 304L488 304L488 309L498 309L498 304C500.204 303.925 502.989 303.442 504.852 304.948C510.333 309.379 503.302 318.102 512 320L512 324C509.327 323.149 506.775 322.41 504 322C505.986 325.823 509.91 327.312 512 331C503.987 327.796 497.743 324.106 489 323C494.092 328.57 502.86 330.153 508.961 334.785C519.218 342.574 518.897 353.042 507 358.275C498.181 362.154 487.436 363.096 478 364.75C471.073 365.964 464.532 367.228 460 373C461.85 373.202 463.15 373.202 465 373L464 371C472.784 368.416 481.129 366.555 490 364.583C493.128 363.888 498.318 361.343 499 366C502.523 365.849 506.532 365.655 509.83 364.288C513.58 362.733 515.784 360.468 520 360C516.988 361.264 515.102 361.847 514 365C516.677 365.169 518.464 364.884 521 364C517.073 371.547 518.883 382.662 519.116 390.985C519.222 394.772 518.256 397.5 520 401C517.284 401.841 515.349 403.388 513 405C515.868 406.428 519.116 407.076 520.821 410.109C522.978 413.945 522 419.764 522 424L522 456C524.442 451.923 523.734 447.575 524.17 443C525.029 433.982 525 425.068 525 416C526.947 422.587 526 430.161 526 437C528.266 433.616 529.853 432.316 534 432C534.022 438.484 538.157 445.949 533 451C533.406 453.092 533.217 453.02 535 454C534.827 458.711 538.572 460.313 541 464C538.131 466.723 541.024 468.485 544 469C544 478.925 544.639 489.086 543.946 498.985C543.704 502.44 542.231 505.527 542 509L545 509L544 522L540 522L540 528L538 528L538 524C534.293 526.2 532.576 528.187 528 528L528 544L512 544L511 552L504 552C502.072 555.498 499.878 555.875 496 556L496 559L503 559C497.385 560.66 490.215 560.9 485 558C480.748 561.596 477.428 561.996 472 562L472 565L458 566L457 562C450.727 564.156 447.06 567.922 440 568L440 571C436.808 570.965 434.56 570.942 432 569C425.649 572.71 419.174 573 412 573C413.98 574.91 415.084 576.4 416 579C397.873 576.709 377.935 576.585 360 579C365.951 581.497 374.58 580 381 580L425 580L580 580L580 0L0 0z"/>
<path style="fill:#a9caf4; stroke:none;" d="M91 508C88.192 504.183 83.4692 500.827 81.2785 496.737C79.8909 494.146 80.3994 491.078 79.1466 488.464C78.1504 486.385 76.2138 484.944 75.2693 482.826C74.0605 480.117 74.2146 476.857 73.4375 474C72.1751 469.359 70.0586 464.74 69.26 460C67.5788 450.021 69.2267 438.986 69.9105 429C70.4185 421.582 68.8458 414.377 69.0147 407C69.1688 400.265 70.9891 393.775 71 387C71.0595 349.971 73.5559 313.01 73.9961 276C74.0653 270.184 72.2616 264.641 72.2739 259C72.3256 235.369 74.7202 211.399 76.8958 188C78.1628 174.374 77.426 160.599 79.1844 147C81.0205 132.801 85.296 118.85 89 105C94.4815 104.81 98.2816 100.313 104 100C104.174 94.6436 107.455 92.6294 109 88C112.511 88 116.146 88.9871 117 85C119.517 85.0257 119.522 84.6039 120 82C131.945 81.9671 142.694 76.7893 154.475 76.7562C157.953 76.7464 160.947 75.17 164 77C176.137 74.1104 189.596 75.965 201.91 75.7014C205.095 75.6332 207.749 73.8986 211 74C218.217 67.3224 232.102 73.4532 241 71L239 74L243 75C250.888 68.7931 266.478 72.3776 276 71.9606C280.402 71.7679 284.263 70.1833 288 73C296.528 71.0506 304.368 71.6005 313 70.9066C316.402 70.6332 319.598 69.3668 323 69.0934C335.838 68.0615 349.119 69 362 69C380.66 69 399.392 69.6605 418 69.6605C425.535 69.6605 432.997 67.8488 440.576 67.8488C451.794 67.8488 462.83 69.7694 474 70L472 71C473.851 71.9316 478.104 73.0677 480 73L480 80C490.883 82.3257 499.316 88.5174 503 99C507.204 99.119 509.102 101.433 511 105C511.685 103.752 511.749 103.452 512 102C518.828 121.012 517.905 139.24 517.039 159C516.746 165.691 517.686 172.357 517.545 179C517.41 185.371 517.997 191.606 518 198C518.002 202.08 517.49 205.469 521 208C524.468 193.432 522 175.951 522 161C522 132.062 523.739 103.325 502.485 80.4283C480.706 56.9659 448.351 58 419 58L246 58L157 58C131.311 58 106.03 57.5894 84.439 73.3896C68.5588 85.011 59.1182 102.521 57.1705 122C56.1219 132.487 57 143.462 57 154L57 312L57 407C57 424.688 55.0579 443.639 58.5509 461C62.3045 479.656 70.3418 502.592 91 508z"/>
<path style="fill:#5ea9f8; stroke:none;" d="M288 73C285.211 69.809 280.818 71.4669 277 71.8302C269.415 72.552 261.614 71.9133 254 72.0038C250.166 72.0495 245.582 71.9314 243 75L239 74C240.036 72.8137 240.339 72.3963 241 71C234.435 71.8032 227.613 71.1559 221 71.4059C216.981 71.5578 213.565 70.3736 211 74C207.876 73.7415 205.838 74.9439 202.83 75.3712C198.871 75.9337 194.051 75.6313 190 75.7407C181.587 75.9679 172.195 74.5776 164 77C161.46 74.2196 156.828 76.4003 153.271 76.4205C141.926 76.4852 131.54 81.9045 120 82C119.262 84.113 119.192 84.7068 117 85C114.998 88.0894 112.536 87.9589 109 88C106.492 92.5837 104.067 94.3733 104 100C102.353 100 99.5317 99.443 98 100C95.7279 100.826 96.232 102.783 94 104C93.2891 104.388 91.6409 103.519 91 104C89.0694 105.448 91.565 105.641 89 105C85.018 115.664 83.8048 126.013 81.6211 137C80.2758 143.769 78.5682 150.01 78.0895 157C77.4064 166.975 77.8222 177.037 76.8958 187C74.6868 210.758 72.4396 235.02 72.1327 259C72.0805 263.084 73.8644 266.894 73.9846 271C74.162 277.066 73.0299 282.958 73.0008 289C72.9286 303.964 73.6153 319.051 72.9606 334C72.6393 341.339 71.3607 348.661 71.0394 356C70.5298 367.637 71.7108 379.379 70.9105 391C70.5632 396.043 69.1386 400.93 69.0147 406C68.8423 413.055 70.269 419.948 69.9606 427C69.4854 437.869 67.8862 449.087 69.1289 460C69.7081 465.087 72.1194 470.044 73.4267 474.985C74.1045 477.547 73.7942 480.467 74.7778 482.916C75.8763 485.651 78.5202 487.355 79.4907 490.174C80.3232 492.591 79.9581 495.25 81.2785 497.53C83.4354 501.255 87.9348 504.958 91 508L82 504C87.3318 510.904 96.752 514.652 104.83 517.362C126.408 524.601 152.473 521 175 521L431 521C456.163 521 479.76 520.317 499.41 502.115C505.414 496.553 511.515 489.234 513 481C511.7 481.65 512 481.147 512 483C510.7 471.162 515.609 458.872 515.502 447C515.474 443.952 514.213 441.059 514.043 438C513.655 431.022 514.242 423.998 513.982 417.015C513.776 411.493 511.91 408.468 514 403C509.944 402.823 506.027 401.391 502 401.343C494.07 401.249 485.983 402 478 402C471.341 402 464.513 401.449 458 403C462.969 405.085 469.65 404 475 404L511 404C507.847 407.324 503.374 408.752 499 410C499.002 425.792 500.803 442.322 497.548 457.999C496.087 465.038 492.116 470.316 490 477L488 476C486.67 477.752 485.752 478.67 484 480C482.952 483.736 480.319 485.842 480 490C470.268 491.186 461.507 496.295 452 497.699C439.893 499.487 427.242 497.821 415 499.285C408.324 500.084 401.721 500 395 500C390.999 500 387.27 500.477 384 498C376.555 500.181 369.573 498.094 362 498.004C347.353 497.83 332.642 498.521 318.004 497.981C313.193 497.804 308.911 496.002 304 496C253.948 495.981 203.112 497.784 153 495.209C143.105 494.701 133.01 496.759 123 495.906C104.69 494.346 91.9804 479.233 86.7238 462.715C82.8211 450.45 85.0461 435.551 85.9105 423C86.589 413.147 85.9759 402.745 87.429 393.001C88.0573 388.787 90.4445 385.148 90.892 380.985C92.3719 367.22 90.1338 353.636 91.0895 340C91.419 335.298 91.9793 329.511 93.2948 325C94.089 322.276 95.607 319.903 95.8519 317.015C96.0789 314.337 94.5946 311.806 94.9877 309.196C95.7227 304.314 99.9855 301.094 101.491 296.675C102.2 294.593 101.942 292.302 102.455 290.17C105.393 277.956 108.286 268.653 105 256C111.238 259.608 111.995 265.314 112 272L114 272L114 224L118 224L118 181C118 173.808 117.278 166.183 118.129 159.039C118.7 154.247 121.286 149.849 122 145C125.586 144.516 127.783 138.776 130.259 136.019C136.04 129.579 143.268 125.1 152 126C151.35 124.7 151.853 125 150 125C162.346 121.247 174.024 120.471 187 121.039C196.073 121.437 205.32 123.678 214 120L214 118C208.742 116.749 204.284 117.729 199 117.961C191.36 118.295 183.647 118 176 118L176 114C181.717 114 187.408 114.331 193 113C189.568 111.56 185.7 112 182 112C183.501 109.887 183.822 108.597 184 106L188 106C187.805 102.962 187.412 100.712 186 98C194.228 95.4327 202.446 96 211 96L210 93C215.161 92.1422 219.722 94.9633 225 94.9992C233.594 95.0578 242.483 93.4728 250.985 94.054C253.818 94.2476 256.302 95.5352 259.09 95.8712C267.872 96.9297 278.183 96.6188 287 95.9066C293.771 95.3598 300.109 92.2973 307 91.9738C315.663 91.5669 324.324 90.9995 333 91C337.143 91.0003 341.942 92.0089 345.996 91.3557C350.057 90.7014 352.8 87.4062 357.015 87.0579C374.636 85.6013 392.435 88.0828 410 87.9992C427.969 87.9137 446.952 85.2847 464.576 90.3187C471.294 92.2376 477.548 97.1898 484 100C484 98.2033 483.986 98.4785 483 97C490.56 99.5317 490.636 107.571 494 114C495.3 113.35 495 113.853 495 112C496.227 115.373 496.885 118.037 500 120C497.189 129.51 499.737 142.499 502 152C498.741 154.848 500 160.932 500 165C500 172.624 500.431 180.393 499.91 188C499.574 192.906 497.91 198.081 498.223 202.995C498.467 206.831 500.499 208.406 504 209C493.84 212.213 482.534 211 472 211C476.215 212.769 481.465 212 486 212C497.366 212 508.907 211.733 520 209C517.557 202.625 518.358 196.688 517.911 190C517.035 176.91 517.387 164.107 517.961 151C518.344 142.244 518.761 132.686 517.575 124C516.559 116.562 513.902 109.406 513 102C512.315 103.248 512.251 103.548 512 105C509.539 101.243 507.692 98.8365 503 99C500.172 88.2534 491.066 81.379 480 80L480 73C477.915 73 478.276 73.1382 478 71L472 72L474 71C469.269 68.8762 464.067 69.3144 459 68.8302C445.012 67.4937 431.889 69.4281 418 69.429C383.163 69.4313 347.54 66.6824 313 70.8156C304.425 71.8417 296.407 70.3349 288 73z"/>
<path style="fill:#1d93fa; stroke:none;" d="M211 96C202.766 96 193.704 94.7356 186 98C186.768 99.3142 186.686 99.2321 188 100C187.754 102.121 187.769 103.874 188 106L184 106C183.697 108.294 183.422 109.211 182 111C185.432 112.44 189.3 112 193 112C187.608 114.595 181.868 114 176 114L176 118C188.202 118 202.117 115.802 214 118L214 120C199.778 124.438 182.832 120.97 168 121C161.628 121.013 156.33 123.864 150 124C156.919 126.903 167.52 125 175 125L230 125C294.669 125 359.285 124 424 124C420.041 122.339 415.263 123 411 123C413.992 120.767 416.281 120.111 420 120C417.785 118.115 416.277 116.618 415 114C421.29 114 432.43 116.533 437 112L432 112C434.78 108.032 433.456 101.997 437.549 98.7068C441.811 95.2815 454.071 97.8018 458.999 98.9383C466.104 100.577 468.487 104.094 473.59 108.942C476.389 111.601 480.707 111.47 483.116 114.318C492.605 125.535 490 143.578 490 157L492 156C491.797 160.436 490.255 164.579 490.04 169C489.513 179.853 495.05 200.447 480 202C481 205.036 481.863 205.494 485 205C484.455 206.635 484.635 206.455 483 207C485.612 207.873 486.547 207.276 488 205C490.249 206.154 490.846 206.751 492 209C482.622 209.74 473.431 210 464 210C467.959 211.661 472.74 211 477 211C486.084 211 494.968 210.388 504 210C501.326 208.172 498.846 206.505 498.448 202.995C497.936 198.472 499.601 193.52 499.91 189C500.431 181.393 500 173.624 500 166C500 161.284 499.055 155.888 502 152C500.125 141.898 497.589 130.127 500 120C497.435 117.558 496.467 115.509 496 112C494.804 112.598 495.023 112.466 494 114C491.654 107.541 490.504 98.5227 483 97L484 100C478.188 96.7101 471.481 91.9249 465 90.1767C447.173 85.368 428.136 87.7874 410 87.9962C392.122 88.202 373.982 85.5449 356.039 87.0579C351.917 87.4054 349.064 90.5984 344.999 91.1011C331.954 92.7142 318.135 90.4806 305 91.7407C295.683 92.6346 287.517 96 278 96C272.107 96 265.895 96.5587 260.039 95.8712C256.915 95.5043 254.181 94.1365 250.985 94.0185C243.011 93.7242 235.014 95.0165 227 95C222.482 94.9907 210.884 89.4284 211 96z"/>
<path style="fill:#0862f6; stroke:none;" d="M432 111C433.769 111.779 435.036 111.912 437 112C431.05 115.811 421.942 114 415 114C415.934 117.127 416.873 118.066 420 119C416.889 119.962 413.918 120.479 411 122C414.959 123.661 419.737 123 424 123C418.854 124.521 413.339 124 408 124L381 124L291 124C295.215 125.769 300.465 125 305 125L334 125C367.998 125 402.085 124 436 124L432 125L432 127C441.759 127 448.031 133.062 452 141C453.064 143.128 454.958 143.263 456 145C456.96 146.6 455.538 150.153 456 152C458.601 162.403 457 175.798 457 187L457 202C457 203.551 456.398 206.596 457 208C457.846 209.973 458.672 207.312 458 210C469.367 210 480.719 210.426 492 209C491.161 206.374 490.626 205.839 488 205C486.283 206.84 485.434 207.349 483 208C484.035 206.814 484.339 206.396 485 205C482.095 204.899 481.435 204.524 480 202C483.179 201.835 486.789 201.603 488.682 198.606C490.978 194.971 490 189.093 490 185C490 175.144 491.794 165.688 492 156L490 157C490 143.341 492.757 126.109 483.695 114.318C481.451 111.398 477.063 111.53 474.298 108.942C468.566 103.578 466.222 100.678 458.576 98.5463C454.141 97.3098 450.485 98.112 446 97.6999C443.231 97.4454 440.072 96.4677 437.549 98.1651C433.308 101.019 434.792 107.316 432 111z"/>
<path style="fill:#1055ad; stroke:none;" d="M424 124C425.769 124.779 427.036 124.912 429 125C427.231 124.221 425.964 124.088 424 124z"/>
<path style="fill:#1d93fa; stroke:none;" d="M429 126C431.377 125.428 433.558 125.11 436 125C433.266 123.86 431.003 123.707 429 126M145 125C146.506 125.683 147.315 125.826 149 126C147.494 125.317 146.685 125.174 145 125z"/>
<path style="fill:#a9caf4; stroke:none;" d="M152 125C158.919 127.903 169.52 126 177 126L233 126L426 126C419.081 123.097 408.48 125 401 125L345 125L152 125z"/>
<path style="fill:#5ea9f8; stroke:none;" d="M426 125C427.248 125.685 427.548 125.749 429 126C427.752 125.315 427.452 125.251 426 125z"/>
<path style="fill:#1055ad; stroke:none;" d="M430.667 125.333C430.222 125.778 431.278 125.722 431.333 125.667C431.778 125.222 430.722 125.278 430.667 125.333z"/>
<path style="fill:#76787a; stroke:none;" d="M144 126C145.248 126.685 145.548 126.749 147 127C145.752 126.315 145.452 126.251 144 126z"/>
<path style="fill:#a9caf4; stroke:none;" d="M147.667 126.333C147.222 126.778 148.278 126.722 148.333 126.667C148.778 126.222 147.722 126.278 147.667 126.333M430.667 126.333C430.222 126.778 431.278 126.722 431.333 126.667C431.778 126.222 430.722 126.278 430.667 126.333z"/>
<path style="fill:#1d93fa; stroke:none;" d="M122 145C120.997 149.373 118.669 153.672 118.129 158.09C117.259 165.207 118 172.832 118 180L118 224L114 224L114 272L112 272C111.999 265.522 111.966 258.65 105 256C106.841 269.915 105.845 282.409 101.491 295.816C99.9531 300.549 95.3443 303.973 94.5887 309.196C94.2012 311.875 95.9973 314.273 95.6821 317.015C95.3531 319.877 93.5869 322.266 92.8387 325C91.6859 329.213 91.3961 334.622 91.0895 339C90.1318 352.677 92.3545 366.216 90.892 379.996C90.4487 384.173 88.0613 387.794 87.429 392.004C85.9664 401.742 86.5888 412.151 85.9105 422C85.0128 435.036 82.6159 450.861 86.7238 463.576C91.912 479.634 103.418 493.499 121 495.812C131.6 497.206 142.452 494.853 153 495.375C196.908 497.549 241.091 495.038 285 496.961C292.671 497.297 300.327 495.233 307.961 496.129C310.421 496.418 312.633 497.575 315.09 497.871C330.012 499.67 345.966 497.825 361 498.004C368.678 498.095 376.668 501.041 384 498C387.944 502.514 402.21 500.065 408 499.996C415.031 499.913 421.985 498.347 429 498.039C437.2 497.68 445.906 499.059 454 497.532C462.749 495.882 471.153 491.817 480 490C480.604 486.145 483.364 483.686 484 480C486.249 478.846 486.846 478.249 488 476L490 477C491.891 472.954 494.777 469.269 496.144 465C501.678 447.72 499.012 427.74 499 410C501.469 409.574 503.645 408.868 506 408C499.126 405.116 489.379 408 482 408C482.899 409.912 483.075 410.886 483 413C485.042 414.438 486.597 415.372 489 416L490 448L488 448L488 436C485.703 435.326 485.226 435.035 484 433C480.527 434.655 477.72 441.27 483 442C481.924 445.531 480.597 448.267 481 452C482.3 451.35 482 451.853 482 450C483.042 452.795 483.108 455.032 483 458C477.162 459.605 475.246 466.124 469 467L468 468L469 470L465 469L462 477C457.901 476.524 452.324 477.313 448.424 478.803C443.284 480.768 438.806 484.358 434 480C430.835 481.191 427.448 483.967 424 484.024C420.567 484.081 417.069 481.322 414 480C409.677 484.529 404.914 484 399 484C388.558 484 379.126 481.359 368.91 480.129C362.972 479.414 355.379 482.127 352 476C343.423 476 335.485 474.878 327.09 474.22C312.551 473.081 297.585 474 283 474C270.926 474 259.018 473.566 247 473.039C240.606 472.759 234.278 473.495 228 472L228 474C226.127 472.338 224.304 469.897 221.975 468.88C218.616 467.412 214.481 468.862 210.96 468.151C199.94 465.927 188.441 464.213 177 465.166C169.863 465.76 164.488 464.633 157.83 462.545C153.477 461.179 150.65 462.321 148 458C145.703 458.674 145.226 458.965 144 461C142.671 459.167 140.564 457.176 141 455C114.954 442.044 121 406.395 121 382C122.521 387.146 122 392.661 122 398L122 425C124.395 419.293 123 411.154 123 405L123 362C123 310.411 122 258.669 122 207C122 180.962 114.52 140.885 144 128C141.988 125.988 140.568 127.288 138 129C133.213 132.191 128.445 135.833 125 141C124.431 141.853 124.558 144.024 124 145C122.976 146.793 123.247 145.312 122 145z"/>
<path style="fill:#a9caf4; stroke:none;" d="M144.667 127.333C144.222 127.778 145.278 127.722 145.333 127.667C145.778 127.222 144.722 127.278 144.667 127.333M434 127L435 128L434 127z"/>
<path style="fill:#5ea9f8; stroke:none;" d="M435 127L436 128L435 127z"/>
<path style="fill:#1055ad; stroke:none;" d="M436 127C444.327 134.269 452.281 139.559 455 151C459.03 141.319 444.493 128.643 436 127z"/>
<path style="fill:#5ea9f8; stroke:none;" d="M437 128L438 129L437 128M438.667 129.333C438.222 129.778 439.278 129.722 439.333 129.667C439.778 129.222 438.722 129.278 438.667 129.333z"/>
<path style="fill:#a9caf4; stroke:none;" d="M138 130L139 131L138 130M137 131L138 132L137 131z"/>
<path style="fill:#5ea9f8; stroke:none;" d="M442 131L443 132L442 131z"/>
<path style="fill:#a9caf4; stroke:none;" d="M443 132L444 133L443 132z"/>
<path style="fill:#5ea9f8; stroke:none;" d="M134 133L135 134L134 133z"/>
<path style="fill:#a9caf4; stroke:none;" d="M133 134L134 135L133 134M132 135L133 136L132 135M131 136L132 137L131 136z"/>
<path style="fill:#5ea9f8; stroke:none;" d="M130 137L131 138L130 137z"/>
<path style="fill:#a9caf4; stroke:none;" d="M448 137L449 138L448 137z"/>
<path style="fill:#5ea9f8; stroke:none;" d="M449 138L450 139L449 138z"/>
<path style="fill:#a9caf4; stroke:none;" d="M128 140L129 141L128 140z"/>
<path style="fill:#5ea9f8; stroke:none;" d="M451 141L452 142L451 141z"/>
<path style="fill:#a9caf4; stroke:none;" d="M127 142L128 143L127 142z"/>
<path style="fill:#5ea9f8; stroke:none;" d="M452 143L453 144L452 143M125 145L126 146L125 145M453 145L454 146L453 145z"/>
<path style="fill:#a9caf4; stroke:none;" d="M124.333 148.667C124.278 148.722 124.222 149.778 124.667 149.333C124.722 149.278 124.778 148.222 124.333 148.667z"/>
<path style="fill:#5ea9f8; stroke:none;" d="M454 148L455 149L454 148M455 151L455 154C455.696 152.446 455.696 152.554 455 151z"/>
<path style="fill:#a9caf4; stroke:none;" d="M123.333 152.667C123.278 152.722 123.222 153.778 123.667 153.333C123.722 153.278 123.778 152.222 123.333 152.667z"/>
<path style="fill:#1055ad; stroke:none;" d="M456 152L456 195C456 198.965 454.161 208.392 459 209C456.397 204.319 457 199.215 457 194L457 166C457 161.464 457.769 156.215 456 152z"/>
<path style="fill:#a9caf4; stroke:none;" d="M455 154L455 208C456.661 204.041 456 199.26 456 195L456 169C456 164.191 456.875 158.469 455 154M328 155C329.248 155.685 329.548 155.749 331 156C329.752 155.315 329.452 155.251 328 155z"/>
<path style="fill:#1d93fa; stroke:none;" d="M331 155L331 157C337.941 157 345.088 156.509 352 157.17C357.75 157.719 363.28 159.501 369 160C363.716 161.145 358.345 159.464 353 159.09C341.561 158.288 331.331 157.803 320 160C321.816 158.703 322.846 157.865 324 156L317 157C317 158.797 317.014 158.521 318 160L312 161L315 159C311.364 158.462 308.281 158.964 306 162L310 161C306.978 163.05 304.678 164.16 301 164C297.084 167.224 290.889 169.564 286 171L288 170C284.328 169.199 281.771 172.99 277.829 173.061C267.683 173.243 256.249 171.238 246.285 172.626C232.331 174.569 218.047 181.589 204 182C198.937 186.913 186.023 192.645 179 193C179 196.839 173.977 197.177 171 198.5C167.213 200.183 163.052 203.549 161 207C167.646 207.398 174.088 203.755 181 204L180 208C186.451 209.803 192.572 218.952 199 218L201 222C201.685 220.752 201.749 220.452 202 219C203.336 223.062 204.225 226.861 208.29 229.101C212.488 231.415 217.856 230.576 221.726 233.702C230.419 240.723 235.99 257.088 248 259C248.275 263.101 250.202 266.145 251.407 270.003C252.002 271.91 252.189 274.768 254.263 275.745C256.607 276.848 258.556 274.07 260.259 272.961C263.413 270.91 267.434 269.979 271 268.883C287.582 263.789 302.628 261 320 261L320 264C322.113 264 324.96 263.49 327 264C328.214 264.303 329.799 265.6 331 266C335.509 267.503 340.852 268.696 345 271C346.127 271.626 346.517 273.624 347 274C349.171 275.688 349.745 273.02 349 276C351.626 275.161 352.161 274.626 353 272C349.998 272.107 348.053 268.884 345 268L347 267C334.438 258.66 314.594 257.757 300 259.17C294.214 259.73 288.821 261.864 283 262C285.373 260.988 287.449 260.378 290 260C286.765 257.428 283.967 256.921 280 258C280.324 254.171 279.198 250.818 276.74 247.77C274.532 245.032 271.199 243.688 273 240L272 236L274 236C273.251 231.964 273.003 228.101 273 224C271.985 225.139 271.691 225.612 271 227L269 227C268.632 223.083 270.741 217.016 266 216C270.026 212.962 268.482 211.677 269.293 207.324C270.025 203.4 272.173 202.318 271 198C273.092 197.594 273.02 197.783 274 196C276.712 196.819 281.474 195.681 283 198L288 195L288 198C292.223 196.402 295.857 193.706 300 191.908C302.041 191.023 304.572 190.931 306.455 189.766C309.224 188.053 311.168 184.888 314 183C313.402 181.805 313.534 182.023 312 181C317.301 177.179 323.072 179.351 328.715 181.696C338.649 185.825 349.425 193.356 360 195C362.084 187.597 369.466 184.836 376 182C379.537 180.465 383.896 178.865 385.396 174.957C388.174 167.718 380.735 162.815 375 160.696C361.109 155.565 345.645 155 331 155z"/>
<path style="fill:#5ea9f8; stroke:none;" d="M347 155C348.769 155.779 350.036 155.912 352 156C350.231 155.221 348.964 155.088 347 155z"/>
<path style="fill:#a9caf4; stroke:none;" d="M352 155C353.248 155.685 353.548 155.749 355 156C353.752 155.315 353.452 155.251 352 155z"/>
<path style="fill:#5ea9f8; stroke:none;" d="M320.667 156.333C320.222 156.778 321.278 156.722 321.333 156.667C321.778 156.222 320.722 156.278 320.667 156.333z"/>
<path style="fill:#1055ad; stroke:none;" d="M324 156C326.332 156.985 328.457 156.981 331 157C328.668 156.015 326.543 156.019 324 156z"/>
<path style="fill:#5ea9f8; stroke:none;" d="M356 156C357.506 156.683 358.315 156.826 360 157C358.494 156.317 357.685 156.174 356 156z"/>
<path style="fill:#a9caf4; stroke:none;" d="M314 157C315.248 157.685 315.548 157.749 317 158C315.752 157.315 315.452 157.251 314 157z"/>
<path style="fill:#5ea9f8; stroke:none;" d="M320 159C324.998 160.533 331.641 157.949 337 158.004C347.716 158.114 358.317 160.541 369 161C360.162 156.197 348.744 157 339 157C332.377 157 326.298 156.705 320 159z"/>
<path style="fill:#a9caf4; stroke:none;" d="M363.667 157.333C363.222 157.778 364.278 157.722 364.333 157.667C364.778 157.222 363.722 157.278 363.667 157.333M310.667 158.333C310.222 158.778 311.278 158.722 311.333 158.667C311.778 158.222 310.722 158.278 310.667 158.333z"/>
<path style="fill:#1055ad; stroke:none;" d="M314 158C315.248 158.685 315.549 158.749 317 159C315.752 158.315 315.452 158.251 314 158z"/>
<path style="fill:#a9caf4; stroke:none;" d="M368.667 158.333C368.222 158.778 369.278 158.722 369.333 158.667C369.778 158.222 368.722 158.278 368.667 158.333z"/>
<path style="fill:#5ea9f8; stroke:none;" d="M307.667 159.333C307.222 159.778 308.278 159.722 308.333 159.667C308.778 159.222 307.722 159.278 307.667 159.333M312 160C314.323 160.922 315.581 160.687 318 160C315.836 159.324 314.268 159.613 312 160z"/>
<path style="fill:#a9caf4; stroke:none;" d="M371.667 159.333C371.222 159.778 372.278 159.722 372.333 159.667C372.778 159.222 371.722 159.278 371.667 159.333z"/>
<path style="fill:#5ea9f8; stroke:none;" d="M122 160L122 342C123.769 337.785 123 332.535 123 328L123 301L123 206L123 175C123 170.191 123.875 164.469 122 160z"/>
<path style="fill:#a9caf4; stroke:none;" d="M304 160L305 161L304 160z"/>
<path style="fill:#5ea9f8; stroke:none;" d="M305 160L306 161L305 160M374 160L375 161L374 160z"/>
<path style="fill:#a9caf4; stroke:none;" d="M301 161L302 162L301 161z"/>
<path style="fill:#5ea9f8; stroke:none;" d="M302 161C302 163.436 301.214 162.615 299 162L300 164L297 163C297 166.172 294.625 165.553 292 165C291.281 168.099 288.849 168.833 286 170C290.157 171.137 298.339 167.31 301 164C304.537 164.313 306.853 163.624 310 162C307.444 161.182 304.692 161.437 302 161z"/>
<path style="fill:#0862f6; stroke:none;" d="M303 161C304.248 161.685 304.548 161.749 306 162C304.752 161.315 304.452 161.251 303 161z"/>
<path style="fill:#1055ad; stroke:none;" d="M300 162C301.248 162.685 301.548 162.749 303 163C301.752 162.315 301.452 162.251 300 162z"/>
<path style="fill:#a9caf4; stroke:none;" d="M296 163L297 164L296 163z"/>
<path style="fill:#1055ad; stroke:none;" d="M298.667 163.333C298.222 163.778 299.278 163.722 299.333 163.667C299.778 163.222 298.722 163.278 298.667 163.333z"/>
<path style="fill:#5ea9f8; stroke:none;" d="M375 163C376.458 164.081 377.248 164.436 379 165C377.457 163.733 376.952 163.511 375 163M294 164L295 165L294 164z"/>
<path style="fill:#1d93fa; stroke:none;" d="M293 165C294.943 165.622 295.949 165.436 298 165C296.057 164.378 295.051 164.564 293 165z"/>
<path style="fill:#a9caf4; stroke:none;" d="M382 164L383 165L382 164z"/>
<path style="fill:#5ea9f8; stroke:none;" d="M383 165L384 166L383 165z"/>
<path style="fill:#1055ad; stroke:none;" d="M287 168C289.462 168.697 290.665 168.11 293 167C290.538 166.303 289.335 166.89 287 168z"/>
<path style="fill:#5ea9f8; stroke:none;" d="M384 166L385 167L384 166z"/>
<path style="fill:#a9caf4; stroke:none;" d="M385 167L386 168L385 167z"/>
<path style="fill:#5ea9f8; stroke:none;" d="M286 168L287 169L286 168z"/>
<path style="fill:#a9caf4; stroke:none;" d="M284 169L285 170L284 169z"/>
<path style="fill:#5ea9f8; stroke:none;" d="M386 169L386 174C386.83 171.969 386.83 171.031 386 169z"/>
<path style="fill:#0862f6; stroke:none;" d="M283 170C274.302 172.751 265.016 172 256 172C262 174.518 270.519 172.91 276.999 173.126C279.807 173.219 283.086 173.358 283 170z"/>
<path style="fill:#a9caf4; stroke:none;" d="M249.667 171.333C249.222 171.778 250.278 171.722 250.333 171.667C250.778 171.222 249.722 171.278 249.667 171.333z"/>
<path style="fill:#5ea9f8; stroke:none;" d="M251 171C252.769 171.779 254.036 171.912 256 172C254.231 171.221 252.964 171.088 251 171z"/>
<path style="fill:#1055ad; stroke:none;" d="M256 171C261.959 173.5 270.564 172 277 172C271.041 169.5 262.436 171 256 171z"/>
<path style="fill:#a9caf4; stroke:none;" d="M241.667 172.333C241.222 172.778 242.278 172.722 242.333 172.667C242.778 172.222 241.722 172.278 241.667 172.333z"/>
<path style="fill:#5ea9f8; stroke:none;" d="M243.667 172.333C243.222 172.778 244.278 172.722 244.333 172.667C244.778 172.222 243.722 172.278 243.667 172.333z"/>
<path style="fill:#1055ad; stroke:none;" d="M248 172C250.613 173.098 253.164 172.993 256 173C253.387 171.902 250.835 172.007 248 172z"/>
<path style="fill:#5ea9f8; stroke:none;" d="M237 173C238.248 173.685 238.548 173.749 240 174C238.752 173.315 238.452 173.251 237 173z"/>
<path style="fill:#1055ad; stroke:none;" d="M240 173C241.769 173.779 243.036 173.912 245 174C243.231 173.221 241.964 173.088 240 173z"/>
<path style="fill:#a9caf4; stroke:none;" d="M229 174C230.248 174.685 230.548 174.749 232 175C230.752 174.315 230.452 174.251 229 174z"/>
<path style="fill:#1d93fa; stroke:none;" d="M232.667 174.333C232.222 174.778 233.278 174.722 233.333 174.667C233.778 174.222 232.722 174.278 232.667 174.333z"/>
<path style="fill:#0862f6; stroke:none;" d="M232 175C234.646 175.815 237.226 175.213 240 175C237.194 173.854 234.929 174.308 232 175z"/>
<path style="fill:#5ea9f8; stroke:none;" d="M226.667 175.333C226.222 175.778 227.278 175.722 227.333 175.667C227.778 175.222 226.722 175.278 226.667 175.333z"/>
<path style="fill:#1055ad; stroke:none;" d="M228 175C229.506 175.683 230.315 175.826 232 176C230.494 175.317 229.685 175.174 228 175z"/>
<path style="fill:#5ea9f8; stroke:none;" d="M222.667 176.333C222.222 176.778 223.278 176.722 223.333 176.667C223.778 176.222 222.722 176.278 222.667 176.333z"/>
<path style="fill:#0862f6; stroke:none;" d="M224 176C225.769 176.779 227.036 176.912 229 177C227.231 176.221 225.964 176.088 224 176z"/>
<path style="fill:#5ea9f8; stroke:none;" d="M218.667 177.333C218.222 177.778 219.278 177.722 219.333 177.667C219.778 177.222 218.722 177.278 218.667 177.333z"/>
<path style="fill:#1055ad; stroke:none;" d="M210 180C214.249 181.257 219.659 178.842 224 178C219.536 176.403 214.471 178.975 210 180z"/>
<path style="fill:#5ea9f8; stroke:none;" d="M214.667 178.333C214.222 178.778 215.278 178.722 215.333 178.667C215.778 178.222 214.722 178.278 214.667 178.333z"/>
<path style="fill:#0862f6; stroke:none;" d="M314 182C311.423 184.127 309.147 187.314 306.455 189.136C304.589 190.399 302.059 190.468 300 191.353C295.804 193.158 291.982 195.794 288 198L288 195C285.823 195.756 284.715 196.45 283 198C281.496 195.253 276.985 196.498 274 196C272.777 197.195 272.58 197.316 271 198C271.697 201.988 270.092 202.983 268.967 206.514C267.7 210.487 270.18 212.345 266 215C267.248 215.685 267.548 215.749 269 216C268.972 219.69 268.59 223.333 269 227L271 227C271.986 225.521 272 225.797 272 224L274 236L272 236L273 240C269.838 243.02 274.018 245.369 276.14 247.77C278.682 250.645 280.143 254.207 280 258C283.684 257.311 286.421 258.063 290 259C287.674 259.88 285.436 260.493 283 261C289.332 263.631 298.154 259.085 305 259.004C318.911 258.838 330.637 261.909 344 265C342.065 261.895 339.159 260.738 336 259L340 258L338 254C340.67 252.139 341.758 249.321 344 247L344 251C344.685 249.752 344.749 249.452 345 248C353.687 247.391 358.603 238.507 368 238L367 234L369 236C374.035 233.263 382.353 235.373 388 236L388 230C389.832 229.969 389.559 230.079 391 229C395.121 232.914 400.336 234.537 404 239L408 238C404.783 233.977 400.16 231.695 396.515 228.076C390.142 221.75 387.031 213.128 377 212C378.534 210.977 378.402 211.195 379 210C363.543 198.245 346.889 188.289 328.778 181.278C325.088 179.85 320.119 177.879 316.083 178.194C313.553 178.392 311.474 180.596 314 182z"/>
<path style="fill:#a9caf4; stroke:none;" d="M211 179L212 180L211 179z"/>
<path style="fill:#5ea9f8; stroke:none;" d="M212 179L213 180L212 179z"/>
<path style="fill:#a9caf4; stroke:none;" d="M208 180L209 181L208 180z"/>
<path style="fill:#5ea9f8; stroke:none;" d="M209 180L210 181L209 180z"/>
<path style="fill:#a9caf4; stroke:none;" d="M379 180L380 181L379 180z"/>
<path style="fill:#5ea9f8; stroke:none;" d="M206 181L207 182L206 181z"/>
<path style="fill:#1055ad; stroke:none;" d="M207.667 181.333C207.222 181.778 208.278 181.722 208.333 181.667C208.778 181.222 207.722 181.278 207.667 181.333z"/>
<path style="fill:#a9caf4; stroke:none;" d="M377 181L378 182L377 181z"/>
<path style="fill:#5ea9f8; stroke:none;" d="M203 182L204 183L203 182z"/>
<path style="fill:#1055ad; stroke:none;" d="M205.667 182.333C205.222 182.778 206.278 182.722 206.333 182.667C206.778 182.222 205.722 182.278 205.667 182.333z"/>
<path style="fill:#a9caf4; stroke:none;" d="M374.667 182.333C374.222 182.778 375.278 182.722 375.333 182.667C375.778 182.222 374.722 182.278 374.667 182.333z"/>
<path style="fill:#5ea9f8; stroke:none;" d="M200 183L201 184L200 183z"/>
<path style="fill:#1055ad; stroke:none;" d="M194 186C197.438 186.954 200.685 185.119 204 184C200.562 183.046 197.315 184.881 194 186z"/>
<path style="fill:#5ea9f8; stroke:none;" d="M372 183L373 184L372 183z"/>
<path style="fill:#a9caf4; stroke:none;" d="M197 184L198 185L197 184z"/>
<path style="fill:#5ea9f8; stroke:none;" d="M198 184L199 185L198 184z"/>
<path style="fill:#a9caf4; stroke:none;" d="M368 185C369.809 185.574 370.069 185.465 372 185C370.341 184.594 369.758 184.691 368 185M195 185L196 186L195 185z"/>
<path style="fill:#5ea9f8; stroke:none;" d="M193 186L194 187L193 186z"/>
<path style="fill:#a9caf4; stroke:none;" d="M190 187L191 188L190 187z"/>
<path style="fill:#0862f6; stroke:none;" d="M180 193C184.689 193.78 189.616 189.617 194 188C189.32 186.717 183.979 190.678 180 193z"/>
<path style="fill:#5ea9f8; stroke:none;" d="M364 187L365 188L364 187z"/>
<path style="fill:#a9caf4; stroke:none;" d="M188 188L189 189L188 188M186 189L187 190L186 189M184 190L185 191L184 190M182 191L183 192L182 191M180 192L181 193L180 192z"/>
<path style="fill:#5ea9f8; stroke:none;" d="M177 194L178 195L177 194z"/>
<path style="fill:#1055ad; stroke:none;" d="M178.667 194.333C178.222 194.778 179.278 194.722 179.333 194.667C179.778 194.222 178.722 194.278 178.667 194.333z"/>
<path style="fill:#0862f6; stroke:none;" d="M218 194C219.506 194.683 220.315 194.826 222 195C220.494 194.317 219.685 194.174 218 194z"/>
<path style="fill:#5ea9f8; stroke:none;" d="M175 195L176 196L175 195z"/>
<path style="fill:#0862f6; stroke:none;" d="M173 197C175.14 197.41 175.962 196.968 178 196C175.86 195.59 175.038 196.032 173 197z"/>
<path style="fill:#1055ad; stroke:none;" d="M211 197C216.077 197.91 221.488 195.977 227 197C222.356 193.482 216.103 195.14 211 197M358 195C359.843 200.194 368.486 203.657 373 206.667C375.322 208.215 379.056 209.064 377 212L380 213C380.986 211.521 381 211.797 381 210C373.801 204.844 366.151 198.446 358 195z"/>
<path style="fill:#a9caf4; stroke:none;" d="M173 196L174 197L173 196z"/>
<path style="fill:#5ea9f8; stroke:none;" d="M215 196L216 197L215 196z"/>
<path style="fill:#d4e2f7; stroke:none;" d="M216 196.657C197.514 202.241 207.719 230.556 225.996 224.297C243.287 218.376 232.879 191.558 216 196.657z"/>
<path style="fill:#a9caf4; stroke:none;" d="M222 196C223.248 196.685 223.548 196.749 225 197C223.752 196.315 223.452 196.251 222 196M361 196L362 197L361 196z"/>
<path style="fill:#5ea9f8; stroke:none;" d="M172 197L173 198L172 197M213 197L214 198L213 197z"/>
<path style="fill:#a9caf4; stroke:none;" d="M226 197L227 198L226 197z"/>
<path style="fill:#5ea9f8; stroke:none;" d="M362 197L363 198L362 197z"/>
<path style="fill:#a9caf4; stroke:none;" d="M170 198L171 199L170 198z"/>
<path style="fill:#5ea9f8; stroke:none;" d="M228 198L229 199L228 198z"/>
<path style="fill:#1055ad; stroke:none;" d="M229.667 198.333C229.222 198.778 230.278 198.722 230.333 198.667C230.778 198.222 229.722 198.278 229.667 198.333z"/>
<path style="fill:#5ea9f8; stroke:none;" d="M169 199L170 200L169 199z"/>
<path style="fill:#a9caf4; stroke:none;" d="M229 199L230 200L229 199z"/>
<path style="fill:#1d93fa; stroke:none;" d="M230 199L231 200L230 199z"/>
<path style="fill:#0862f6; stroke:none;" d="M231 199C231.684 200.58 231.805 200.777 233 202C232.316 200.42 232.195 200.223 231 199z"/>
<path style="fill:#5ea9f8; stroke:none;" d="M365 199L366 200L365 199z"/>
<path style="fill:#76787a; stroke:none;" d="M366 200L367 201L366 200z"/>
<path style="fill:#a9caf4; stroke:none;" d="M367 200L368 201L367 200M166 201L167 202L166 201z"/>
<path style="fill:#0862f6; stroke:none;" d="M206 201L206 204C207.195 202.777 207.316 202.58 208 201L206 201z"/>
<path style="fill:#1055ad; stroke:none;" d="M233 201C233.962 205.063 235.581 208.824 236 213C237.633 208.807 235.867 204.253 233 201z"/>
<path style="fill:#5ea9f8; stroke:none;" d="M368 201L369 202L368 201M165 202L166 203L165 202z"/>
<path style="fill:#a9caf4; stroke:none;" d="M219 202C220.248 202.685 220.548 202.749 222 203C220.752 202.315 220.452 202.251 219 202z"/>
<path style="fill:#5ea9f8; stroke:none;" d="M232 202L233 203L232 202M159 208L160 210C159.547 211.584 157.196 214.07 158 216C159.572 219.773 164.343 219.406 167 221L166 222C169.658 220.781 171.881 222.505 175 225L174 226C177.453 225.425 179.798 226.439 183 229L182 230C184.985 229.731 187.193 229.857 188 233L191 232C190.95 234.284 190.716 234.05 193 234L193 237L191 236C191 238.688 189.324 237.428 187 237C191.373 241.665 197.972 244.337 202.723 248.719C207.1 252.757 209.938 259.36 214.04 263.964C217.908 268.305 222.545 269.93 224 276C229.674 277.722 228.896 283.745 233.46 286.991C237.209 289.657 243.514 288.282 248 290C247.846 296.638 253.497 298.396 257.657 302.414C260.171 304.842 261.055 308.316 263.299 310.942C268.162 316.631 271.924 316.646 272 325L277 325C277.602 333.117 285.87 334.145 291.91 338.046C296.944 341.297 302.146 344.54 306.997 348.049C309.25 349.678 310.856 352.184 313.325 353.491C319.847 356.944 328.841 356.619 336 358L334 359C341.639 362.671 351.707 362 360 362C358.598 360.649 357.824 359.746 357 358C350.359 356.991 347.931 351.599 342.791 348.147C339.598 346.003 335.612 346.102 332.286 344.271C327.048 341.387 323.019 336.72 317.91 333.71C313.701 331.229 307.61 329.161 305 325C298.931 324.36 298.336 317.803 293.956 314.594C291.169 312.552 288.249 310.989 285.765 308.522C283.688 306.459 282.168 303.603 279.741 301.938C277.118 300.137 273.772 300.153 271.51 297.697C269.07 295.048 268.597 291.124 266.779 288.09C263.183 282.086 260.026 280.53 260 273C258.634 273.794 256.728 275.628 255.018 275.249C251.457 274.46 248.439 262.368 248 259C236.516 255.931 230.872 241.086 222.505 233.702C218.816 230.446 213.343 231.311 209.171 229.101C205.081 226.935 203.33 223.401 203 219C202.315 220.248 202.251 220.548 202 222L199 218C191.968 217.692 187.316 209.133 180 208L181 204C173.776 202.685 165.889 205.991 159 208M207 203L208 204L207 203z"/>
<path style="fill:#a9caf4; stroke:none;" d="M216 203L217 204L216 203z"/>
<path style="fill:#1055ad; stroke:none;" d="M217 203L218 204L217 203z"/>
<path style="fill:#0d0f17; stroke:none;" d="M218.044 203.761C209.376 206.943 214.223 219.856 222.891 216.393C230.436 213.378 226.033 200.828 218.044 203.761z"/>
<path style="fill:#76787a; stroke:none;" d="M223 203L224 204L223 203z"/>
<path style="fill:#5ea9f8; stroke:none;" d="M233 203L234 204L233 203M371 203L372 204L371 203z"/>
<path style="fill:#1055ad; stroke:none;" d="M205 204C204.438 207.025 204.064 209.922 204 213C205.393 210.172 206.189 207.056 207 204L205 204z"/>
<path style="fill:#76787a; stroke:none;" d="M215 204L216 205L215 204z"/>
<path style="fill:#1055ad; stroke:none;" d="M224 204L225 205L224 204z"/>
<path style="fill:#76787a; stroke:none;" d="M214 205L215 206L214 205z"/>
<path style="fill:#5ea9f8; stroke:none;" d="M374 205L375 206L374 205z"/>
<path style="fill:#a9caf4; stroke:none;" d="M213 206L214 207L213 206z"/>
<path style="fill:#76787a; stroke:none;" d="M226 206L227 207L226 206z"/>
<path style="fill:#a9caf4; stroke:none;" d="M234 206L235 207L234 206z"/>
<path style="fill:#0862f6; stroke:none;" d="M236.333 206.667C236.278 206.722 236.222 207.778 236.667 207.333C236.722 207.278 236.778 206.222 236.333 206.667z"/>
<path style="fill:#1055ad; stroke:none;" d="M213 207L214 208L213 207z"/>
<path style="fill:#5ea9f8; stroke:none;" d="M377 207L378 208L377 207M205 208L205 213C205.83 210.969 205.83 210.03 205 208z"/>
<path style="fill:#a9caf4; stroke:none;" d="M227 208L227 211C227.696 209.446 227.696 209.554 227 208z"/>
<path style="fill:#5ea9f8; stroke:none;" d="M235 208L235 214C235.951 211.715 235.951 210.285 235 208z"/>
<path style="fill:#76787a; stroke:none;" d="M378 208L379 209L378 208z"/>
<path style="fill:#a9caf4; stroke:none;" d="M158 209L159 210L158 209z"/>
<path style="fill:#76787a; stroke:none;" d="M159 209C158.438 210.8 158.176 212.122 158 214C159.133 212.101 159.473 211.143 159 209z"/>
<path style="fill:#a9caf4; stroke:none;" d="M212 209L212 212C212.696 210.446 212.696 210.554 212 209M381 210L382 211L381 210M456 211C459.067 215.345 466.106 214.757 471 215.424C484.87 217.312 502.376 217.244 516 214L516 210C503.566 210.981 491.521 212.145 479 211.996C471.336 211.905 463.671 210.157 456 211z"/>
<path style="fill:#5ea9f8; stroke:none;" d="M458 210C460.052 210.874 461.747 210.953 464 211C461.948 210.126 460.253 210.047 458 210z"/>
<path style="fill:#0d0f17; stroke:none;" d="M381 211L382 212L381 211z"/>
<path style="fill:#1055ad; stroke:none;" d="M382 211C383.875 214.914 386.989 217.142 389.877 220.299C392.088 222.717 393.527 225.707 395.785 228.076C399.385 231.855 404.097 234.547 408 238L404 239C401.191 233.976 395.606 232.214 391 229C389.647 229.712 389.455 229.815 388 230L388 236C381.188 234.621 373.508 235.933 367 234L368 238C360.235 238.033 356.168 241.744 350.389 246.278C347.907 248.225 345.706 247.706 345 251L344 247C341.41 248.787 340.226 251.729 338 254L340 258L336 259C340.623 262.603 349.336 266.313 351.637 272.04C353.146 275.798 351.378 279.951 353 284C354.797 284 354.522 283.986 356 283C358.234 287.045 362.109 292.505 367 292C366.262 296.522 367.579 298.717 372 300L372 304C375.709 304.253 377.695 305.052 380 308L378 307C380.699 311.28 382.87 314.933 384 320C386.249 321.154 386.846 321.751 388 324C395.945 325.221 398.023 331.422 402.708 336.856C407.108 341.959 412.953 343.638 414.615 351C418.078 366.338 412.942 382.472 417.294 398C419.048 404.256 420.866 410.864 427 414C416.415 397.779 416 381.848 416 363C417.915 364.277 417.085 364.277 419 363L419 368C420.58 367.316 420.777 367.195 422 366C425.776 368.917 428.818 366.899 433 368C435.439 364.61 437.704 362.051 439 358C440.023 359.534 439.805 359.402 441 360C445.768 357.211 451.033 354.355 456 352L455 346C461.229 348.068 464.786 341.812 469 338C469 336.203 468.986 336.479 468 335L474 334C471.943 332.418 470.613 332.174 468 332C469.801 331.438 471.122 331.176 473 331C473 328.903 473.541 329.24 475 328C465.169 325.012 456.994 326.211 447 327C454.48 322.687 465.486 323.006 474 323C465.351 319.371 453.952 323.292 445 324C445 314.439 440.988 305.49 442 296C437.541 296 437.314 282.676 435.833 279C430.363 265.418 422.29 252.325 413.167 241C410.375 237.534 406.325 230.416 402 231L401 230C399.704 222.432 388.126 215.189 382 211z"/>
<path style="fill:#a9caf4; stroke:none;" d="M157.333 212.667C157.278 212.722 157.222 213.778 157.667 213.333C157.722 213.278 157.778 212.222 157.333 212.667z"/>
<path style="fill:#76787a; stroke:none;" d="M213 213L214 214L213 213M226 213L227 214L226 213z"/>
<path style="fill:#0862f6; stroke:none;" d="M236 213C236.031 214.832 235.92 214.559 237 216C236.749 214.548 236.685 214.248 236 213z"/>
<path style="fill:#a9caf4; stroke:none;" d="M385 213L386 214L385 213z"/>
<path style="fill:#1055ad; stroke:none;" d="M205 214C207.935 227.458 227.392 232.837 234 219C226.515 224.092 219.206 229.336 211.105 221.786C208.667 219.514 207.122 216.522 205 214z"/>
<path style="fill:#a9caf4; stroke:none;" d="M206.333 214.667C206.278 214.722 206.222 215.778 206.667 215.333C206.722 215.278 206.778 214.222 206.333 214.667z"/>
<path style="fill:#5ea9f8; stroke:none;" d="M386 214L387 215L386 214z"/>
<path style="fill:#76787a; stroke:none;" d="M225 215L226 216L225 215z"/>
<path style="fill:#1055ad; stroke:none;" d="M235.333 215.667C235.278 215.722 235.222 216.778 235.667 216.333C235.722 216.278 235.778 215.222 235.333 215.667z"/>
<path style="fill:#76787a; stroke:none;" d="M387 215L388 216L387 215M216 216L217 217L216 216z"/>
<path style="fill:#a9caf4; stroke:none;" d="M224 216L225 217L224 216z"/>
<path style="fill:#5ea9f8; stroke:none;" d="M234 216L235 217L234 216z"/>
<path style="fill:#a9caf4; stroke:none;" d="M207 217L208 218L207 217M218 217L219 218L218 217z"/>
<path style="fill:#76787a; stroke:none;" d="M219 217C220.248 217.685 220.548 217.749 222 218C220.752 217.315 220.452 217.251 219 217z"/>
<path style="fill:#a9caf4; stroke:none;" d="M222 217L223 218L222 217z"/>
<path style="fill:#0862f6; stroke:none;" d="M234 217L234 219C235.635 218.455 235.455 218.635 236 217L234 217z"/>
<path style="fill:#a9caf4; stroke:none;" d="M390 217L391 218L390 217z"/>
<path style="fill:#5ea9f8; stroke:none;" d="M233 218L234 219L233 218M391 218L392 219L391 218z"/>
<path style="fill:#a9caf4; stroke:none;" d="M208 219L209 220L208 219M232 219L233 220L232 219z"/>
<path style="fill:#5ea9f8; stroke:none;" d="M392 219L393 220L392 219z"/>
<path style="fill:#a9caf4; stroke:none;" d="M164 220L165 221L164 220z"/>
<path style="fill:#1d93fa; stroke:none;" d="M165.667 220.333C165.222 220.778 166.278 220.722 166.333 220.667C166.778 220.222 165.722 220.278 165.667 220.333z"/>
<path style="fill:#a9caf4; stroke:none;" d="M209 220L210 221L209 220z"/>
<path style="fill:#5ea9f8; stroke:none;" d="M393 220L394 221L393 220z"/>
<path style="fill:#1d93fa; stroke:none;" d="M167 221C169.435 223.433 171.618 224.388 175 225C172.523 222.71 170.31 221.639 167 221z"/>
<path style="fill:#a9caf4; stroke:none;" d="M210 221L211 222L210 221z"/>
<path style="fill:#5ea9f8; stroke:none;" d="M394 221L395 222L394 221z"/>
<path style="fill:#a9caf4; stroke:none;" d="M211 222L212 223L211 222M229 222L230 223L229 222M212 223L213 224L212 223z"/>
<path style="fill:#5ea9f8; stroke:none;" d="M228 223L229 224L228 223M214 224L215 225L214 224M226 224L227 225L226 224z"/>
<path style="fill:#1d93fa; stroke:none;" d="M175 225C177.435 227.433 179.618 228.388 183 229C180.543 226.806 178.189 225.806 175 225z"/>
<path style="fill:#5ea9f8; stroke:none;" d="M216.667 225.333C216.222 225.778 217.278 225.722 217.333 225.667C217.778 225.222 216.722 225.278 216.667 225.333z"/>
<path style="fill:#a9caf4; stroke:none;" d="M218 225C220.052 225.874 221.747 225.953 224 226C221.948 225.126 220.253 225.047 218 225M157 226C158.248 226.685 158.548 226.749 160 227C158.752 226.315 158.452 226.251 157 226z"/>
<path style="fill:#5ea9f8; stroke:none;" d="M155 233C161.356 223.939 169.911 235.54 178 235C172.492 231.295 155.935 220.996 155 233z"/>
<path style="fill:#a9caf4; stroke:none;" d="M177 227L178 228L177 227M224 295C222.466 296.023 222.598 295.805 222 297C223.759 299.308 223.917 301.092 224 304L228 304L227 308C229.086 309.662 230.21 310.526 229 313L230 317C231.195 316.402 230.977 316.534 232 315C233.341 316.274 234.403 317.041 236 318C234.664 319.826 234.31 320.753 234 323C240.247 323.748 245.7 326.587 249 332C251.772 331.538 253.363 331.891 256 334L255 335C261.734 335.189 268.687 337.945 272 344C278.845 343.996 285.474 348.018 292 349.964C306.164 354.187 321.141 358.703 336 359C329.756 354.665 320.994 356.924 314.184 353.491C311.652 352.214 310.113 349.705 307.855 348.049C302.466 344.097 296.597 340.452 290.961 336.846C285.21 333.167 278.146 332.68 277 325L272 325C271.992 322.325 272.437 318.865 270.821 316.545C268.974 313.894 265.407 312.55 263.299 309.981C261.151 307.361 260.236 303.965 257.657 301.684C253.395 297.913 249.25 296.021 248 290C243.595 287.708 238.318 289.373 234.26 286.916C229.205 283.855 230.176 277.031 224 276C223.088 269.232 217.501 267.109 213.348 262.306C206.771 254.7 202.467 246.622 193.741 241.135C189.061 238.193 182.192 237.737 177 235.687C172.895 234.065 161.1 225.403 156.954 229.782C154.87 231.983 156.146 235.587 157.019 238C159.219 244.085 162.37 249.417 165.573 255C171.145 264.714 177.209 273.654 184.83 281.91C187.648 284.962 190.462 288.863 194.174 290.876C203.017 295.67 214.317 295 224 295z"/>
<path style="fill:#1055ad; stroke:none;" d="M183 229C184.949 230.573 186.588 231.291 189 232C187.02 230.116 185.69 229.531 183 229z"/>
<path style="fill:#0d0f17; stroke:none;" d="M401 229C401.545 230.635 401.365 230.455 403 231C402.455 229.365 402.635 229.545 401 229z"/>
<path style="fill:#76787a; stroke:none;" d="M402 229L403 230L402 229z"/>
<path style="fill:#a9caf4; stroke:none;" d="M184 230L185 231L184 230z"/>
<path style="fill:#5ea9f8; stroke:none;" d="M186 231L187 232L186 231z"/>
<path style="fill:#0862f6; stroke:none;" d="M189.667 232.333C189.222 232.778 190.278 232.722 190.333 232.667C190.778 232.222 189.722 232.278 189.667 232.333z"/>
<path style="fill:#a9caf4; stroke:none;" d="M175 233L176 234L175 233z"/>
<path style="fill:#76787a; stroke:none;" d="M406 233L407 234L406 233z"/>
<path style="fill:#1d93fa; stroke:none;" d="M192 234L192 237C192.696 235.446 192.696 235.554 192 234z"/>
<path style="fill:#5ea9f8; stroke:none;" d="M407 234L408 235L407 234z"/>
<path style="fill:#1d93fa; stroke:none;" d="M177 235C180.573 237.701 184.555 238.772 189 239C185.544 236.535 181.177 235.615 177 235z"/>
<path style="fill:#5ea9f8; stroke:none;" d="M408 235L409 236L408 235z"/>
<path style="fill:#a9caf4; stroke:none;" d="M409 236L410 237L409 236z"/>
<path style="fill:#1d93fa; stroke:none;" d="M189 237C190.248 237.685 190.548 237.749 192 238C190.752 237.315 190.452 237.251 189 237z"/>
<path style="fill:#76787a; stroke:none;" d="M412 240L413 241L412 240z"/>
<path style="fill:#5ea9f8; stroke:none;" d="M413 241L414 242L413 241z"/>
<path style="fill:#76787a; stroke:none;" d="M416 245L417 246L416 245z"/>
<path style="fill:#0d0f17; stroke:none;" d="M417.333 247.667C417.278 247.722 417.222 248.778 417.667 248.333C417.722 248.278 417.778 247.222 417.333 247.667z"/>
<path style="fill:#76787a; stroke:none;" d="M418 248L419 249L418 248z"/>
<path style="fill:#5ea9f8; stroke:none;" d="M419 249L420 250L419 249M421 252L422 253L421 252M423 255L424 256L423 255z"/>
<path style="fill:#76787a; stroke:none;" d="M424 257L425 258L424 257z"/>
<path style="fill:#a9caf4; stroke:none;" d="M425 258L426 259L425 258z"/>
<path style="fill:#5ea9f8; stroke:none;" d="M426 260L427 261L426 260z"/>
<path style="fill:#0862f6; stroke:none;" d="M310 297C308.752 296.315 308.452 296.251 307 296L328 288C326.814 289.186 326.416 289.528 325 290C325.598 291.195 325.466 290.977 327 292C324.953 292.787 324.953 293.213 327 294C325.522 294.986 325.797 295 324 295C331.102 299.734 336.088 305.962 342.388 311.459C346.013 314.622 346.534 318.475 352 318C354.406 322.029 358.617 324.381 360 329C365.594 328.658 369.08 330.599 371 336C374.063 336.417 376.265 337.611 379 339C378.47 344.13 382.328 346.13 387 345C390.137 350.472 395.566 352.07 400 356L406 355C401.473 357.004 396.846 358.06 392 359C397.318 361.076 403.582 357.935 408.999 357.18C411.459 356.837 414.9 357.138 415.316 353.941C416.438 345.3 408.185 341.985 403.478 336.856C398.358 331.278 396.623 324.649 388 324C387.161 321.374 386.626 320.839 384 320C383.321 314.871 381.462 310.786 378 307L380 308C378.158 304.487 375.807 304.116 372 304L372 300C368.192 298.15 366.865 296.261 367 292C362.089 291.509 358.981 286.688 356 283L353 284C352.008 280.722 352.617 276.787 349 276L350 274C340.084 269.297 331.389 264.031 320 264L320 261C304.186 261 290.159 262.715 275 267.344C271.517 268.408 262.18 269.629 260.662 273.411C258.934 277.717 268.391 281.772 271 283.793C282.743 292.891 294.692 299.842 310 297z"/>
<path style="fill:#76787a; stroke:none;" d="M427 262L428 263L427 262z"/>
<path style="fill:#a9caf4; stroke:none;" d="M429 265L430 266L429 265z"/>
<path style="fill:#5ea9f8; stroke:none;" d="M345 267L351 273C351.829 269.009 348.453 267.705 345 267M430 267L431 268L430 267M431 269L432 270L431 269M433 273L434 274L433 273z"/>
<path style="fill:#a9caf4; stroke:none;" d="M434 275L435 276L434 275z"/>
<path style="fill:#1d93fa; stroke:none;" d="M260 277C260.369 282.253 263.446 283.961 266.197 288.09C268.164 291.044 268.62 294.941 270.843 297.697C273.114 300.513 277.027 300.381 279.741 302.563C282.073 304.439 283.569 307.242 285.765 309.295C288.266 311.633 291.297 313.09 293.956 315.188C298.288 318.607 298.667 324.836 305 325C305.98 329.596 314.091 331.794 317.972 334.111C323.012 337.12 326.889 342.179 332.222 344.889C335.688 346.65 339.619 346.136 342.917 348.611C347.928 352.373 349.913 357.849 357 358C357.482 360.364 357.636 360.518 360 361C358.199 361.562 356.878 361.824 355 362C360.224 364.192 366.526 362.691 372 362.17C377.961 361.602 383.918 362.059 389.83 360.752C395.25 359.553 400.52 357.253 406 356C403.761 355.189 402.353 355.471 400 356C396.764 351.667 390.743 349.323 387 345C382.344 345.549 379.479 343.789 379 339C376.276 337.103 374.318 336.229 371 336C369.744 330.077 365.733 328.086 360 329C359.187 324.148 355.108 321.553 352 318C347.135 317.538 346.354 314.52 343.085 311.459C341.387 309.869 339.129 309.076 337.47 307.432C332.814 302.819 331.32 297.155 324 296C325.478 295.014 325.203 295 327 295C326.209 293.239 326.038 293.455 327 292C322.505 290.458 318.203 294.026 314 295.558C307.958 297.76 302.275 298.115 296 296.904C288.698 295.495 280.263 291.291 274.129 287.147C268.841 283.574 266.466 279.242 260 277z"/>
<path style="fill:#5ea9f8; stroke:none;" d="M435 278L436 279L435 278M436 280L437 281L436 280M437 283L438 284L437 283M271 284C272.517 286.918 273.893 287.922 277 289C275.17 286.652 273.637 285.383 271 284z"/>
<path style="fill:#0d0f17; stroke:none;" d="M437 285L440 297C441.438 292.948 439.488 288.326 437 285z"/>
<path style="fill:#76787a; stroke:none;" d="M438 286L439 287L438 286z"/>
<path style="fill:#1055ad; stroke:none;" d="M307 295C313.648 298.781 322.243 292.392 328 289C321.796 287.352 313.839 294.645 307 295z"/>
<path style="fill:#5ea9f8; stroke:none;" d="M439 288L440 289L439 288z"/>
<path style="fill:#1d93fa; stroke:none;" d="M439 289L440 290L439 289z"/>
<path style="fill:#a9caf4; stroke:none;" d="M440 291L441 292L440 291z"/>
<path style="fill:#5ea9f8; stroke:none;" d="M440 292L441 293L440 292M441.333 294.667C441.278 294.722 441.222 295.778 441.667 295.333C441.722 295.278 441.778 294.222 441.333 294.667z"/>
<path style="fill:#0d0f17; stroke:none;" d="M441 298L443 312C444.751 307.707 443.344 301.888 441 298z"/>
<path style="fill:#76787a; stroke:none;" d="M442.333 299.667C442.278 299.722 442.222 300.778 442.667 300.333C442.722 300.278 442.778 299.222 442.333 299.667z"/>
<path style="fill:#a9caf4; stroke:none;" d="M443.333 302.667C443.278 302.722 443.222 303.778 443.667 303.333C443.722 303.278 443.778 302.222 443.333 302.667M449 302C448.173 310.31 442.945 320.31 454 323C454 319.612 457.476 321.535 460 322C465.578 317.774 479.87 319.539 485 324L490 325C490 322.234 493.521 323.621 496 324C501.775 324.882 506.204 330.39 512 331C510.643 327.023 506.569 325.277 504 322L512 324L512 320C503.765 316.972 510.478 309.354 505.397 304.897C503.436 303.178 500.346 303.812 498 304L498 309C494.618 308.718 491.383 308.803 488 309L488 304L480 304L480 307C473.754 307.202 465.542 313.671 464 304C458.811 303.943 454.184 302.058 449 302z"/>
<path style="fill:#76787a; stroke:none;" d="M443.333 304.667C443.278 304.722 443.222 305.778 443.667 305.333C443.722 305.278 443.778 304.222 443.333 304.667z"/>
<path style="fill:#a9caf4; stroke:none;" d="M444.333 308.667C444.278 308.722 444.222 309.778 444.667 309.333C444.722 309.278 444.778 308.222 444.333 308.667z"/>
<path style="fill:#76787a; stroke:none;" d="M444.333 310.667C444.278 310.722 444.222 311.778 444.667 311.333C444.722 311.278 444.778 310.222 444.333 310.667z"/>
<path style="fill:#a9caf4; stroke:none;" d="M445 316C445 319.511 444.013 323.146 448 324L445 316z"/>
<path style="fill:#5ea9f8; stroke:none;" d="M227 318L227 320C228.635 319.455 228.455 319.635 229 318L227 318z"/>
<path style="fill:#1055ad; stroke:none;" d="M228 319L228 325C228.951 322.715 228.951 321.285 228 319z"/>
<path style="fill:#1d93fa; stroke:none;" d="M229 319C229.727 335.936 232.755 352.296 245.043 364.985C248.392 368.443 257.276 377.196 262 372C270.677 371.609 267 358.135 267 352C267.986 353.479 268 353.203 268 355C269.243 351.313 269.204 346.91 270 343C264.653 340.001 258.603 337.481 253 334.94C249.689 333.438 246.244 332.658 245 329C239.367 326.198 234.505 322.065 229 319z"/>
<path style="fill:#a9caf4; stroke:none;" d="M227 320L227 324C227.71 322.24 227.71 321.759 227 320z"/>
<path style="fill:#5ea9f8; stroke:none;" d="M231 320L232 321L231 320z"/>
<path style="fill:#d4e2f7; stroke:none;" d="M460 320C466.629 322.781 477.704 322.687 485 323C478.067 318.846 467.816 320 460 320M453 321C454.769 321.779 456.036 321.912 458 322C456.231 321.221 454.964 321.088 453 321z"/>
<path style="fill:#5ea9f8; stroke:none;" d="M460 321C463.698 322.552 468.017 322 472 322C468.303 320.448 463.983 321 460 321z"/>
<path style="fill:#d4e2f7; stroke:none;" d="M235 322C238.6 326.345 243.732 329.082 249 331C245.79 326.019 240.443 323.948 235 322z"/>
<path style="fill:#76787a; stroke:none;" d="M454.667 322.333C454.222 322.778 455.278 322.722 455.333 322.667C455.778 322.222 454.722 322.278 454.667 322.333z"/>
<path style="fill:#0862f6; stroke:none;" d="M447 326C451.353 327.699 456.397 325.67 461 325.609C465.513 325.549 470.613 326.943 475 328C472.802 329.332 472.618 328.86 473 331L468 331C469.941 331.951 471.898 332.439 474 333L468 335L469 338C464.435 340.861 460.989 347.633 455 346L456 352C451.149 352.524 444.162 361.613 439 358L433 368C429.3 366.02 425.974 368.447 422 366C420.814 367.186 420.416 367.528 419 368L419 363L416 363L416 387C416.685 385.752 416.749 385.452 417 384L418 388L423 387C424.111 390.699 425.234 392.822 429 394C428.579 396.843 428.061 398.012 426 400L426 402C429.009 403.837 429.767 405.748 431 409C431.911 407.623 432.404 406.56 433 405L435 406C436.789 404.578 437.706 404.303 440 404C439.485 411.035 433.971 416.844 427 413C428.023 421.145 439.634 412.61 441.759 409C444.047 405.113 443.268 401.12 444.565 397.005C445.484 394.088 447.537 391.709 448.787 388.94C453.199 379.167 459.087 365.299 472 366C471.35 364.7 471.853 365 470 365C479.238 361.539 490.227 360.262 500 359C497.649 356.82 495.955 355.15 499 353C497.623 352.089 496.56 351.596 495 351C497.524 345.327 498.996 341.292 499 335C500.878 334.824 502.199 334.562 504 334C497.128 327.034 484.52 324.415 475 324L477 323C474.106 322.11 471.041 322.818 468 323.025C461.085 323.495 453.516 323.56 447 326z"/>
<path style="fill:#5ea9f8; stroke:none;" d="M477 322C478.248 322.685 478.548 322.749 480 323C478.752 322.315 478.452 322.251 477 322z"/>
<path style="fill:#76787a; stroke:none;" d="M448.667 323.333C448.222 323.778 449.278 323.722 449.333 323.667C449.778 323.222 448.722 323.278 448.667 323.333z"/>
<path style="fill:#1055ad; stroke:none;" d="M475 323C480.947 325.863 489.425 327.427 496 328C490.063 324.268 481.919 323.057 475 323z"/>
<path style="fill:#1d93fa; stroke:none;" d="M482 323C483.248 323.685 483.548 323.749 485 324C483.752 323.315 483.452 323.251 482 323z"/>
<path style="fill:#d4e2f7; stroke:none;" d="M486.667 323.333C486.222 323.778 487.278 323.722 487.333 323.667C487.778 323.222 486.722 323.278 486.667 323.333z"/>
<path style="fill:#0862f6; stroke:none;" d="M229 324C229.003 328.101 229.251 331.964 230 336C231.263 332.48 230.452 327.427 229 324z"/>
<path style="fill:#1d93fa; stroke:none;" d="M486.667 324.333C486.222 324.778 487.278 324.722 487.333 324.667C487.778 324.222 486.722 324.278 486.667 324.333M228 325L228 328C228.696 326.446 228.696 326.554 228 325z"/>
<path style="fill:#5ea9f8; stroke:none;" d="M490 325L491 326L490 325M493 326L494 327L493 326M241 327L242 328L241 327M228.333 328.667C228.278 328.722 228.222 329.778 228.667 329.333C228.722 329.278 228.778 328.222 228.333 328.667M243 328L244 329L243 328z"/>
<path style="fill:#1055ad; stroke:none;" d="M496 328C501.943 334.025 509.603 337.037 515 344C515.654 336.03 502.425 329.854 496 328z"/>
<path style="fill:#5ea9f8; stroke:none;" d="M498 328L499 329L498 328M245 329L246 330L245 329M500 329L501 330L500 329z"/>
<path style="fill:#0862f6; stroke:none;" d="M244 330C246.442 332.565 248.492 333.533 252 334C249.534 331.964 247.071 330.887 244 330z"/>
<path style="fill:#1d93fa; stroke:none;" d="M246 330L247 331L246 330z"/>
<path style="fill:#5ea9f8; stroke:none;" d="M502 330L503 331L502 330M248 331L249 332L248 331z"/>
<path style="fill:#d4e2f7; stroke:none;" d="M250 331C251.98 332.884 253.31 333.469 256 334C254.051 332.427 252.412 331.709 250 331z"/>
<path style="fill:#1d93fa; stroke:none;" d="M250 332L251 333L250 332M505 332L506 333L505 332z"/>
<path style="fill:#a9caf4; stroke:none;" d="M229 333L229 336C229.696 334.446 229.696 334.554 229 333z"/>
<path style="fill:#5ea9f8; stroke:none;" d="M252 333L253 334L252 333M507 333L508 334L507 333z"/>
<path style="fill:#1055ad; stroke:none;" d="M252 334C253.458 335.081 254.248 335.436 256 336C254.542 334.919 253.752 334.564 252 334z"/>
<path style="fill:#5ea9f8; stroke:none;" d="M254 334L255 335L254 334z"/>
<path style="fill:#d4e2f7; stroke:none;" d="M257 334C259.802 338.108 266.224 340.149 271 341C267.296 337.289 261.923 335.641 257 334z"/>
<path style="fill:#1d93fa; stroke:none;" d="M499 335C498.982 341.168 496.818 345.284 495 351L499 352C497.521 352.986 497.797 353 496 353C497.357 361.228 507.61 360.006 512.686 355.351C515.59 352.688 516.16 347.672 517 344C510.565 338.948 507.861 333.979 499 335M508 334L509 335L508 334z"/>
<path style="fill:#5ea9f8; stroke:none;" d="M256 335L257 336L256 335z"/>
<path style="fill:#a9caf4; stroke:none;" d="M510 335L511 336L510 335z"/>
<path style="fill:#0862f6; stroke:none;" d="M256 336C259.692 339.877 265.116 341.01 270 343C269.158 345.994 268.416 348.917 268 352C274.236 342.076 265.043 337.724 256 336z"/>
<path style="fill:#a9caf4; stroke:none;" d="M511 336L512 337L511 336z"/>
<path style="fill:#5ea9f8; stroke:none;" d="M261 337L262 338L261 337z"/>
<path style="fill:#a9caf4; stroke:none;" d="M512 337L513 338L512 337z"/>
<path style="fill:#5ea9f8; stroke:none;" d="M262.667 338.333C262.222 338.778 263.278 338.722 263.333 338.667C263.778 338.222 262.722 338.278 262.667 338.333M265 339L266 340L265 339M514 340L515 341L514 340M270 341L271 342L270 341z"/>
<path style="fill:#a9caf4; stroke:none;" d="M515 341L516 342L515 341z"/>
<path style="fill:#1055ad; stroke:none;" d="M271.333 342.667C271.278 342.722 271.222 343.778 271.667 343.333C271.722 343.278 271.778 342.222 271.333 342.667z"/>
<path style="fill:#5ea9f8; stroke:none;" d="M271 344L272 345L271 344z"/>
<path style="fill:#a9caf4; stroke:none;" d="M270.333 346.667C270.278 346.722 270.222 347.778 270.667 347.333C270.722 347.278 270.778 346.222 270.333 346.667z"/>
<path style="fill:#0862f6; stroke:none;" d="M516 346L515 352C516.495 349.815 516.889 348.508 516 346z"/>
<path style="fill:#a9caf4; stroke:none;" d="M233 347L234 348L233 347z"/>
<path style="fill:#5ea9f8; stroke:none;" d="M234 348L235 349L234 348M269 349L269 352C269.696 350.446 269.696 350.554 269 349M235 350L236 351L235 350z"/>
<path style="fill:#a9caf4; stroke:none;" d="M516 350L516 353C516.696 351.446 516.696 351.554 516 350z"/>
<path style="fill:#0862f6; stroke:none;" d="M267 352L267 365C268.591 361.209 268.591 355.791 267 352z"/>
<path style="fill:#5ea9f8; stroke:none;" d="M515 352L516 353L515 352M268 355L268 363C269.161 360.23 269.161 357.77 268 355z"/>
<path style="fill:#1055ad; stroke:none;" d="M410 355C411.506 355.683 412.315 355.826 414 356C412.494 355.317 411.685 355.174 410 355z"/>
<path style="fill:#5ea9f8; stroke:none;" d="M238 356L239 357L238 356M239 357L240 358L239 357z"/>
<path style="fill:#1d93fa; stroke:none;" d="M406.667 357.333C406.222 357.778 407.278 357.722 407.333 357.667C407.778 357.222 406.722 357.278 406.667 357.333z"/>
<path style="fill:#a9caf4; stroke:none;" d="M408.667 357.333C408.222 357.778 409.278 357.722 409.333 357.667C409.778 357.222 408.722 357.278 408.667 357.333z"/>
<path style="fill:#76787a; stroke:none;" d="M415.333 357.667C415.278 357.722 415.222 358.778 415.667 358.333C415.722 358.278 415.778 357.222 415.333 357.667z"/>
<path style="fill:#1055ad; stroke:none;" d="M326 358C326.739 360.567 327.682 362.673 329 365C329.505 361.93 328.151 360.152 326 358z"/>
<path style="fill:#1d93fa; stroke:none;" d="M327 358C328.248 358.685 328.548 358.749 330 359C328.752 358.315 328.452 358.251 327 358z"/>
<path style="fill:#a9caf4; stroke:none;" d="M403.667 358.333C403.222 358.778 404.278 358.722 404.333 358.667C404.778 358.222 403.722 358.278 403.667 358.333M506.667 358.333C506.222 358.778 507.278 358.722 507.333 358.667C507.778 358.222 506.722 358.278 506.667 358.333M240 359L241 360L240 359z"/>
<path style="fill:#0862f6; stroke:none;" d="M328 359L331 368L334 361C344.333 365.36 356.179 362.991 367 365C364.541 362.186 360.53 363.132 357 362.715C347.435 361.585 337.604 359.198 328 359z"/>
<path style="fill:#5ea9f8; stroke:none;" d="M397 359C398.248 359.685 398.548 359.749 400 360C398.752 359.315 398.452 359.251 397 359z"/>
<path style="fill:#1055ad; stroke:none;" d="M470 364C473.606 365.407 477.276 364.096 481 363.424C487.659 362.224 494.424 361.62 501 360C497.378 358.586 493.743 359.937 490 360.565C483.335 361.683 476.706 363.148 470 364z"/>
<path style="fill:#5ea9f8; stroke:none;" d="M502.667 359.333C502.222 359.778 503.278 359.722 503.333 359.667C503.778 359.222 502.722 359.278 502.667 359.333z"/>
<path style="fill:#a9caf4; stroke:none;" d="M326.333 360.667C326.278 360.722 326.222 361.778 326.667 361.333C326.722 361.278 326.778 360.222 326.333 360.667z"/>
<path style="fill:#5ea9f8; stroke:none;" d="M392 360C393.248 360.685 393.548 360.749 395 361C393.752 360.315 393.452 360.251 392 360z"/>
<path style="fill:#a9caf4; stroke:none;" d="M499.667 360.333C499.222 360.778 500.278 360.722 500.333 360.667C500.778 360.222 499.722 360.278 499.667 360.333M499 366C498.433 361.485 493.355 363.462 490 364.278C481.012 366.462 472.651 367.074 464 371L465 373L459 373C458.111 376.416 456.185 378.825 454.825 382C451.573 389.588 449.136 397.476 445.572 405C443.277 409.844 439.415 413.405 440 419C436.308 419.394 432.703 419.066 429 419C430.769 419.779 432.036 419.912 434 420C431.894 420.644 430.205 420.906 428 421C430.89 422.213 433.874 421.998 437 422C435.521 422.986 435.797 423 434 423C435.628 424.743 436.697 425.383 439 426C436.697 427.598 434.581 428.927 432 430L432 441L426 441L426 447C408.173 447 390 449 372 448C369.833 447.88 368.105 446.617 366 446.5C363.659 446.37 352.706 448.725 357 443C352.434 442.048 349.438 444.053 345 444.391C333.708 445.252 322.37 446.986 311 447C299.27 447.014 286.727 444.435 275.09 446.144C268.064 447.175 261.362 450.37 254 450.91C228.283 452.795 201.792 450.959 176 451C167.269 451.014 158.74 452.994 150 453C155.126 455.476 163.312 454 169 454L213 454L368 454L418 454C421.604 454 432.296 455.312 433 451C438.163 451.294 441.184 449.167 442 444C448.002 444 449.796 436.005 453 432L454 433C454.723 427.276 454.997 421.776 455 416C455.001 412.7 454.583 408.952 456.603 406.109C460.149 401.121 466.65 402 472 402C485.02 402 503.295 398.448 515 405C516.666 403.198 517.846 402.11 520 401C519.007 397.83 519.607 395.205 519.371 391.961C518.71 382.867 517.701 372.61 521 364C518.589 364.613 516.489 365.013 514 365C515.573 362.281 516.925 361.627 520 361C515.327 359.198 513.007 362.638 508.91 364.288C505.867 365.514 502.239 365.744 499 366z"/>
<path style="fill:#1d93fa; stroke:none;" d="M334 361C332.21 364.167 331.782 366.381 332 370L334 369C334.524 369.655 335.406 372.491 336 373C339.674 376.149 344.755 380.476 348 383C349.6 384.245 352.254 384.127 354 385C356.389 386.195 358.801 387.68 361 389L360 390C362.093 389.603 364.707 389.463 366.607 388.436C371.797 385.633 368.853 378.37 368.084 374C367.622 371.377 367.707 366.972 365.4 365.179C362.632 363.027 357.269 364.035 354 363.996C347.306 363.917 340.374 363.021 334 361z"/>
<path style="fill:#5ea9f8; stroke:none;" d="M384 361C385.248 361.685 385.548 361.749 387 362C385.752 361.315 385.452 361.251 384 361M493 361C494.248 361.685 494.549 361.749 496 362C494.752 361.315 494.452 361.251 493 361M327 362L328 363L327 362M369 362C371.052 362.874 372.747 362.953 375 363C372.948 362.126 371.253 362.047 369 362z"/>
<path style="fill:#a9caf4; stroke:none;" d="M375 362C377.89 363.213 380.874 362.998 384 363C381.11 361.787 378.126 362.002 375 362z"/>
<path style="fill:#1d93fa; stroke:none;" d="M486.667 362.333C486.222 362.778 487.278 362.722 487.333 362.667C487.778 362.222 486.722 362.278 486.667 362.333z"/>
<path style="fill:#5ea9f8; stroke:none;" d="M488.667 362.333C488.222 362.778 489.278 362.722 489.333 362.667C489.778 362.222 488.722 362.278 488.667 362.333z"/>
<path style="fill:#a9caf4; stroke:none;" d="M243 363L244 364L243 363z"/>
<path style="fill:#1055ad; stroke:none;" d="M367 363L367 371C368.161 368.23 368.161 365.77 367 363z"/>
<path style="fill:#a9caf4; stroke:none;" d="M368 363L368 370C369.059 367.466 369.059 365.534 368 363z"/>
<path style="fill:#1d93fa; stroke:none;" d="M480 363C481.248 363.685 481.548 363.749 483 364C481.752 363.315 481.452 363.251 480 363z"/>
<path style="fill:#a9caf4; stroke:none;" d="M483.667 363.333C483.222 363.778 484.278 363.722 484.333 363.667C484.778 363.222 483.722 363.278 483.667 363.333M244 364L245 365L244 364M328 364L329 365L328 364z"/>
<path style="fill:#5ea9f8; stroke:none;" d="M414 364L414 371C415.059 368.466 415.059 366.534 414 364M475.667 364.333C475.222 364.778 476.278 364.722 476.333 364.667C476.778 364.222 475.722 364.278 475.667 364.333z"/>
<path style="fill:#a9caf4; stroke:none;" d="M477 364C478.248 364.685 478.549 364.749 480 365C478.752 364.315 478.452 364.251 477 364z"/>
<path style="fill:#5ea9f8; stroke:none;" d="M245 365L246 366L245 365z"/>
<path style="fill:#1d93fa; stroke:none;" d="M329 365L330 366L329 365z"/>
<path style="fill:#1055ad; stroke:none;" d="M462 370L470 366C466.439 365.294 463.865 367.011 462 370z"/>
<path style="fill:#5ea9f8; stroke:none;" d="M472.667 365.333C472.222 365.778 473.278 365.722 473.333 365.667C473.778 365.222 472.722 365.278 472.667 365.333M246 366L247 367L246 366z"/>
<path style="fill:#a9caf4; stroke:none;" d="M405 390C410.739 387.688 406.787 384.459 406.143 379.961C405.442 375.057 406.261 370.537 408 366C401.665 368.547 402.508 384.589 405 390z"/>
<path style="fill:#5ea9f8; stroke:none;" d="M469 366L470 367L469 366M247 367L248 368L247 367M330 367L331 368L330 367M248 368L249 369L248 368M331 368L332 369L331 368M464 368L465 369L464 368z"/>
<path style="fill:#1055ad; stroke:none;" d="M333 369C333.936 370.949 334.392 371.55 336 373C335.064 371.051 334.608 370.45 333 369z"/>
<path style="fill:#5ea9f8; stroke:none;" d="M251 370L252 371L251 370M368.333 370.667C368.278 370.722 368.222 371.778 368.667 371.333C368.722 371.278 368.778 370.222 368.333 370.667M461 370L462 371L461 370z"/>
<path style="fill:#a9caf4; stroke:none;" d="M252 371L253 372L252 371z"/>
<path style="fill:#76787a; stroke:none;" d="M414 371L414 381C415.346 377.793 415.346 374.207 414 371z"/>
<path style="fill:#1055ad; stroke:none;" d="M443 404C447.119 399.754 448.445 393.417 450.601 388C453.082 381.767 456.353 376.584 460 371C450.359 375.929 445.699 394.132 443 404z"/>
<path style="fill:#5ea9f8; stroke:none;" d="M460 371L461 372L460 371z"/>
<path style="fill:#1055ad; stroke:none;" d="M262.667 372.333C262.222 372.778 263.278 372.722 263.333 372.667C263.778 372.222 262.722 372.278 262.667 372.333z"/>
<path style="fill:#5ea9f8; stroke:none;" d="M334 372L335 373L334 372z"/>
<path style="fill:#1055ad; stroke:none;" d="M368 372L370 386C371.766 381.671 370.148 376.011 368 372z"/>
<path style="fill:#5ea9f8; stroke:none;" d="M459 372L460 373L459 372M256.667 373.333C256.222 373.778 257.278 373.722 257.333 373.667C257.778 373.222 256.722 373.278 256.667 373.333M262.667 373.333C262.222 373.778 263.278 373.722 263.333 373.667C263.778 373.222 262.722 373.278 262.667 373.333M335 373L336 374L335 373z"/>
<path style="fill:#0862f6; stroke:none;" d="M336 373C338.776 378.184 344.467 382.165 350 384C346.303 379.763 341.069 375.36 336 373z"/>
<path style="fill:#5ea9f8; stroke:none;" d="M458 373L459 374L458 373M369.333 374.667C369.278 374.722 369.222 375.778 369.667 375.333C369.722 375.278 369.778 374.222 369.333 374.667M456 375L457 376L456 375M338 376L339 377L338 376M339 377L340 378L339 377M455 377L456 378L455 377z"/>
<path style="fill:#a9caf4; stroke:none;" d="M340 378L341 379L340 378z"/>
<path style="fill:#5ea9f8; stroke:none;" d="M370.333 378.667C370.278 378.722 370.222 379.778 370.667 379.333C370.722 379.278 370.778 378.222 370.333 378.667M343 380L344 381L343 380z"/>
<path style="fill:#1d93fa; stroke:none;" d="M453 380L454 381L453 380z"/>
<path style="fill:#5ea9f8; stroke:none;" d="M344 381L345 382L344 381z"/>
<path style="fill:#a9caf4; stroke:none;" d="M371 381C370.691 386.623 368.731 389.356 363 390C369.022 392.322 373.268 386.575 371 381z"/>
<path style="fill:#5ea9f8; stroke:none;" d="M414 381L414 385C414.71 383.24 414.71 382.759 414 381z"/>
<path style="fill:#0862f6; stroke:none;" d="M121 382L121 426C122.552 422.301 122 417.983 122 414L122 394C122 390.017 122.552 385.699 121 382z"/>
<path style="fill:#a9caf4; stroke:none;" d="M345 382L346 383L345 382z"/>
<path style="fill:#5ea9f8; stroke:none;" d="M347 383L348 384L347 383z"/>
<path style="fill:#1055ad; stroke:none;" d="M349 384C350.139 385.015 350.612 385.309 352 386C351.02 384.217 351.092 384.406 349 384z"/>
<path style="fill:#1d93fa; stroke:none;" d="M417 384L417 393C423.37 396.512 420.042 405.358 424.394 410.811C430.97 419.053 439.719 412.765 440 404C437.598 404.168 436.54 404.197 435 406L433 405L431 409C430.022 405.468 429.518 403.409 426 402L426 400C428.545 398.365 428.779 397.007 429 394C425.765 392.321 424.472 390.313 423 387L418 388C417.826 386.315 417.683 385.506 417 384z"/>
<path style="fill:#0862f6; stroke:none;" d="M352 385C354.758 387.548 357.274 388.596 361 389C358.179 387.055 355.34 385.757 352 385M369 385L368 389C369.935 387.585 370.143 387.1 369 385z"/>
<path style="fill:#5ea9f8; stroke:none;" d="M451 385L452 386L451 385z"/>
<path style="fill:#1d93fa; stroke:none;" d="M352.667 386.333C352.222 386.778 353.278 386.722 353.333 386.667C353.778 386.222 352.722 386.278 352.667 386.333z"/>
<path style="fill:#5ea9f8; stroke:none;" d="M354 387L355 388L354 387M450 388L451 389L450 388z"/>
<path style="fill:#0862f6; stroke:none;" d="M362 389C364.052 389.874 365.747 389.953 368 390C365.948 389.126 364.253 389.047 362 389z"/>
<path style="fill:#5ea9f8; stroke:none;" d="M415.333 390.667C415.278 390.722 415.222 391.778 415.667 391.333C415.722 391.278 415.778 390.222 415.333 390.667M449.333 390.667C449.278 390.722 449.222 391.778 449.667 391.333C449.722 391.278 449.778 390.222 449.333 390.667z"/>
<path style="fill:#1d93fa; stroke:none;" d="M446 392C445.009 394.706 444.287 397.132 444 400C445.71 397.408 446.845 395.04 446 392z"/>
<path style="fill:#0862f6; stroke:none;" d="M418 393C418.369 397.523 419.622 401.692 421 406C422.192 402.126 421.145 396.866 420 393L418 393z"/>
<path style="fill:#5ea9f8; stroke:none;" d="M448 393L449 394L448 393M416.333 395.667C416.278 395.722 416.222 396.778 416.667 396.333C416.722 396.278 416.778 395.222 416.333 395.667z"/>
<path style="fill:#a9caf4; stroke:none;" d="M447.333 396.667C447.278 396.722 447.222 397.778 447.667 397.333C447.722 397.278 447.778 396.222 447.333 396.667z"/>
<path style="fill:#1d93fa; stroke:none;" d="M417.333 398.667C417.278 398.722 417.222 399.778 417.667 399.333C417.722 399.278 417.778 398.222 417.333 398.667z"/>
<path style="fill:#5ea9f8; stroke:none;" d="M446.333 398.667C446.278 398.722 446.222 399.778 446.667 399.333C446.722 399.278 446.778 398.222 446.333 398.667M445 401L446 402L445 401M418 402L419 403L418 402M444 403L445 404L444 403z"/>
<path style="fill:#1055ad; stroke:none;" d="M456 425C458.191 419.778 457 412.632 457 407C461.918 408.236 466.954 407.023 472 407.001C484.38 406.945 496.679 406.254 509 406C504.049 403.621 498.384 404 493 404L470 404C466.684 404 459.368 402.649 457.028 405.603C453.978 409.454 456 420.25 456 425z"/>
<path style="fill:#1d93fa; stroke:none;" d="M504 404L510 407C510.986 405.521 511 405.797 511 404L504 404z"/>
<path style="fill:#5ea9f8; stroke:none;" d="M419 405L420 406L419 405z"/>
<path style="fill:#a9caf4; stroke:none;" d="M512 405C512.044 408.954 513.421 412.206 513.871 416.039C515.035 425.952 514.881 437.054 515.186 447C515.549 458.828 512.482 471.27 511 483C512.3 482.35 512 482.853 512 481C512.017 489.666 503.023 498.365 496.83 503.65C474.669 522.563 448.241 521 421 521L212 521L151 521C138.102 521 124.725 521.993 112.015 519.37C106.542 518.241 101.287 515.759 96 514L97 516L87 511C85.7631 518.057 90.9369 521.307 92 528L95 527C96.5356 532.109 98.6859 533.826 104 534C105.254 542.554 117.101 538.21 114 547C116.442 546.891 118.623 546.572 121 546L122 550C124.645 549.923 126.266 550.003 128 548C130.447 550.589 130.887 552.462 131 556C133.539 556.324 135.618 557.082 138 558C139.988 555.939 141.157 555.421 144 555L144 552L149 552C147.448 554.659 148.027 556.96 148 560C154.766 560 161.278 560.469 168 561L167 565C169.124 565.899 169.101 565.876 170 568C172.739 567.789 173.422 567.697 174 565C178.692 572.084 184.167 572 192 572L192 578C202.244 578 212.789 577.273 223 578.093C227.081 578.421 230.871 579.878 235 579.985C267.284 580.828 299.703 580 332 580C340.554 580 349.491 580.738 358 579.826C362.401 579.355 366.58 577.493 371 577.213C374.648 576.982 378.334 577.953 382 577.996C393.42 578.132 404.631 578.103 416 579C415.373 576.064 414.853 574.987 412 574C417.955 572.24 426.699 574.344 431 569C433.908 571.037 436.498 570.988 440 571L440 568C447.247 567.975 450.821 565.162 457 562L458 566L472 565L472 562C477.321 561.999 481.383 562.343 485 558C489.853 561.399 497.261 560 503 560C500.668 559.015 498.543 559.019 496 559L496 556C499.935 555.953 502.657 556.046 504 552L511 552C511.501 549.314 511.883 546.73 512 544L528 544L528 528C532.717 528.452 534.552 526.985 538 524L538 528L540 528L540 522L544 522L545 509L542 509C542.355 506.214 543.537 503.683 543.871 500.91C545.119 490.559 544 479.429 544 469C541.061 468.071 539.522 466.985 541 464C539.266 460.147 535.137 458.433 535 454C533.805 452.777 533.684 452.58 533 451C538.93 447.155 534.065 437.86 534 432C529.824 432.137 527.728 432.638 527 437C525.053 430.413 526 422.839 526 416C523.9 421.003 525.06 427.618 524.996 433C524.906 440.612 523.954 448.451 523 456C519.972 445.758 522 432.662 522 422C522 417.948 523.082 411.778 520.258 408.433C518.295 406.109 514.773 405.728 512 405z"/>
<path style="fill:#5ea9f8; stroke:none;" d="M455 406L455 424C456.952 419.349 456.952 410.651 455 406z"/>
<path style="fill:#0862f6; stroke:none;" d="M502 406C504.332 406.985 506.457 406.981 509 407C506.668 406.015 504.543 406.019 502 406z"/>
<path style="fill:#5ea9f8; stroke:none;" d="M420 407L421 408L420 407M442 407L443 408L442 407z"/>
<path style="fill:#0862f6; stroke:none;" d="M457 407C457 416.286 457.846 427.091 454.34 435.91C450.277 446.132 437.85 454.874 427 454C427 457.66 414.435 456 411 456L358 456L219 456C196.365 456 172.514 458.189 150 456C143.385 455.357 139.094 448.659 133 448C133 445.357 131.662 445.344 129 445C131.935 450.47 134.555 453.647 141 454C139.466 455.023 139.598 454.805 139 456L143 461C144.666 459.745 146.099 458.841 148 458C149.685 462.191 152.001 461.405 155.961 462.298C160.517 463.325 164.221 464.848 169 465.421C174.961 466.135 180.971 464.775 187 465.039C195.508 465.412 203.261 467.251 211.482 468.534C214.674 469.032 218.638 467.792 221.656 469.072C224.039 470.082 225.772 472.63 228 474L228 472C233.812 473.718 239.993 472.776 246 473.039C256.358 473.493 266.588 474 277 474C289.968 474 303.043 473.513 316 474.039C328.108 474.53 339.796 476 352 476C354.099 482.324 362.613 479.501 367.961 480.129C378.879 481.411 388.808 484 400 484C405.366 484 410.773 484.966 414 480C422.256 485.047 425.682 484.561 434 480C438.195 485.913 445.058 480.008 450.17 478.495C453.79 477.423 458.242 477.074 462 477C463.385 474.392 464.223 471.845 465 469L469 470L469 467C475.517 466.678 477.466 460.479 483 458C483.23 455.262 483.293 452.733 483 450C481.805 450.598 482.023 450.466 481 452C481.14 448.515 482.38 445.413 483 442C477.261 442 481.105 434.721 484 433C484.578 435.697 485.261 435.789 488 436L488 448L490 448L489 416L483 413C483.453 410.792 483.646 410.449 482 409C485.96 407.829 489.887 408 494 408C490.301 406.448 485.983 407 482 407C473.813 407 465.099 408.026 457 407z"/>
<path style="fill:#5ea9f8; stroke:none;" d="M441 409L442 410L441 409z"/>
<path style="fill:#1d93fa; stroke:none;" d="M422 410L423 411L422 410z"/>
<path style="fill:#5ea9f8; stroke:none;" d="M423 412L424 413L423 412M439 412L440 413L439 412M424 413L425 414L424 413M438 413L439 414L438 413M425 414L426 415L425 414M437 414L438 415L437 414M436 415L437 416L436 415z"/>
<path style="fill:#1055ad; stroke:none;" d="M429 416C430.769 416.779 432.036 416.912 434 417C432.231 416.221 430.964 416.088 429 416z"/>
<path style="fill:#1d93fa; stroke:none;" d="M455.333 424.667C455.278 424.722 455.222 425.778 455.667 425.333C455.722 425.278 455.778 424.222 455.333 424.667z"/>
<path style="fill:#1055ad; stroke:none;" d="M122 425C122.021 427.849 122.19 430.271 123 433C124.038 430.102 123.433 427.696 122 425z"/>
<path style="fill:#a9caf4; stroke:none;" d="M123 426L123 429C123.696 427.446 123.696 427.554 123 426z"/>
<path style="fill:#1055ad; stroke:none;" d="M455 426C454.321 432.776 450.7 437.958 448 444C453.775 440.805 457.587 432.343 455 426z"/>
<path style="fill:#76787a; stroke:none;" d="M454.333 429.667C454.278 429.722 454.222 430.778 454.667 430.333C454.722 430.278 454.778 429.222 454.333 429.667z"/>
<path style="fill:#a9caf4; stroke:none;" d="M124.333 430.667C124.278 430.722 124.222 431.778 124.667 431.333C124.722 431.278 124.778 430.222 124.333 430.667z"/>
<path style="fill:#5ea9f8; stroke:none;" d="M124 432L125 433L124 432z"/>
<path style="fill:#d4e2f7; stroke:none;" d="M452 432C449.622 436.841 446.968 441.567 442 444L442 448C446.613 444.723 453.71 438.255 452 432z"/>
<path style="fill:#0862f6; stroke:none;" d="M123 433C123.318 435.877 123.62 437.334 126 439C125.381 436.883 125.065 435.198 125 433L123 433z"/>
<path style="fill:#1055ad; stroke:none;" d="M124 434C125.322 438.579 127.23 442.041 131 445C129.328 440.965 127.116 437.071 124 434z"/>
<path style="fill:#a9caf4; stroke:none;" d="M125 434L126 435L125 434z"/>
<path style="fill:#5ea9f8; stroke:none;" d="M452 435L453 436L452 435z"/>
<path style="fill:#a9caf4; stroke:none;" d="M126 436L127 437L126 436z"/>
<path style="fill:#5ea9f8; stroke:none;" d="M451 437L452 438L451 437M127 438L128 439L127 438z"/>
<path style="fill:#1d93fa; stroke:none;" d="M450 439L451 440L450 439z"/>
<path style="fill:#5ea9f8; stroke:none;" d="M128 440L129 441L128 440z"/>
<path style="fill:#0862f6; stroke:none;" d="M449.333 440.667C449.278 440.722 449.222 441.778 449.667 441.333C449.722 441.278 449.778 440.222 449.333 440.667z"/>
<path style="fill:#1d93fa; stroke:none;" d="M447 443L448 444L447 443z"/>
<path style="fill:#5ea9f8; stroke:none;" d="M131 444L132 445L131 444z"/>
<path style="fill:#1d93fa; stroke:none;" d="M446 444L445 446C446.263 445.029 446.392 445.306 446 444z"/>
<path style="fill:#5ea9f8; stroke:none;" d="M132 445L133 446L132 445z"/>
<path style="fill:#1055ad; stroke:none;" d="M446 445L447 446L446 445M430 454C435.956 455.756 442.832 450.729 446 446C440.487 448.319 435.65 451.805 430 454M133.667 447.333C133.222 447.778 134.278 447.722 134.333 447.667C134.778 447.222 133.722 447.278 133.667 447.333z"/>
<path style="fill:#5ea9f8; stroke:none;" d="M441 448L442 449L441 448M137 449L138 450L137 449z"/>
<path style="fill:#1055ad; stroke:none;" d="M137 450C138.543 451.267 139.048 451.489 141 452C139.542 450.919 138.752 450.564 137 450z"/>
<path style="fill:#5ea9f8; stroke:none;" d="M139 450L140 451L139 450M438 450L439 451L438 450z"/>
<path style="fill:#d4e2f7; stroke:none;" d="M433.667 451.333C433.222 451.778 434.278 451.722 434.333 451.667C434.778 451.222 433.722 451.278 433.667 451.333z"/>
<path style="fill:#5ea9f8; stroke:none;" d="M436 451L437 452L436 451M143 452L144 453L143 452z"/>
<path style="fill:#1055ad; stroke:none;" d="M143 453C148.537 457.815 158.079 456 165 456L218 456L428 456C421.081 453.097 410.48 455 403 455L348 455L221 455C195.11 455 168.543 456.755 143 453z"/>
<path style="fill:#5ea9f8; stroke:none;" d="M146.667 453.333C146.222 453.778 147.278 453.722 147.333 453.667C147.778 453.222 146.722 453.278 146.667 453.333M429 453C430.248 453.685 430.548 453.749 432 454C430.752 453.315 430.452 453.251 429 453z"/>
<path style="fill:#1d93fa; stroke:none;" d="M149 454C150.248 454.685 150.548 454.749 152 455C150.752 454.315 150.452 454.251 149 454z"/>
<path style="fill:#5ea9f8; stroke:none;" d="M152 454C158.919 456.903 169.52 455 177 455L233 455L427 455C420.081 452.097 409.48 454 402 454L346 454L152 454z"/>
</svg>
